<?xml version="1.0" standalone="no"?>
<!DOCTYPE svg PUBLIC "-//W3C//DTD SVG 1.1//EN" "http://www.w3.org/Graphics/SVG/1.1/DTD/svg11.dtd" >
<svg xmlns="http://www.w3.org/2000/svg" xmlns:xlink="http://www.w3.org/1999/xlink" version="1.1">
<metadata>
Created by FontForge 20161003 at Thu Apr 19 09:17:04 2018
 By www-data
Copyright (c) 2014 by Rene' Bieder. All rights reserved.
</metadata>
<defs>
<font id="Campton-Book" horiz-adv-x="600" >
  <font-face 
    font-family="Campton Book"
    font-weight="475"
    font-stretch="normal"
    units-per-em="1000"
    panose-1="0 0 5 0 0 0 0 0 0 0"
    ascent="800"
    descent="-200"
    x-height="467"
    cap-height="680"
    bbox="-33 -243 1452 968"
    underline-thickness="50"
    underline-position="-100"
    stemh="77"
    stemv="92"
    unicode-range="U+0020-FB02"
  />
<missing-glyph horiz-adv-x="870" 
d="M770 680v-680h-670v680h670zM700 610h-481l481 -481v481zM170 70h477l-477 477v-477z" />
    <glyph glyph-name="fi" unicode="fi" horiz-adv-x="684" 
d="M598 467v-467h-92v390h-276v-390h-92v390h-134v77h134v76c0 133 81 215 198 215c70 0 105 -11 171 -29l-17 -79c-52 13 -85 23 -143 23c-73 0 -117 -47 -117 -130v-76h368z" />
    <glyph glyph-name="fl" unicode="fl" horiz-adv-x="663" 
d="M138 467v103c0 113 71 188 178 188c30 0 67 -4 102 -14l-13 -80c-25 5 -53 9 -72 9c-62 0 -103 -41 -103 -103v-103h165v-77h-165v-390h-92v390h-134v77h134zM586 710v-710h-91v710h91z" />
    <glyph glyph-name=".notdef" horiz-adv-x="870" 
d="M770 680v-680h-670v680h670zM700 610h-481l481 -481v481zM170 70h477l-477 477v-477z" />
    <glyph glyph-name="A" unicode="A" horiz-adv-x="748" 
d="M544 175h-340l-76 -175h-102l303 684h90l303 -684h-102zM506 263l-132 306l-132 -306h264z" />
    <glyph glyph-name="Aacute" unicode="&#xc1;" horiz-adv-x="748" 
d="M412 757h-84l78 146h102zM545 175h-341l-76 -175h-102l304 684h89l303 -684h-101zM507 263l-133 307l-132 -307h265z" />
    <glyph glyph-name="Abreve" unicode="&#x102;" horiz-adv-x="748" 
d="M374 761c-82 0 -149 50 -149 147h69c0 -61 39 -84 80 -84c40 0 80 23 80 84h69c0 -97 -67 -147 -149 -147zM545 175h-341l-76 -175h-102l304 684h89l303 -684h-101zM507 263l-133 307l-132 -307h265z" />
    <glyph glyph-name="Acaron" unicode="&#x1cd;" horiz-adv-x="748" 
d="M329 752l-121 149h88l79 -90l78 90h87l-121 -149h-90zM545 175h-341l-76 -175h-102l304 684h89l303 -684h-101zM507 263l-133 307l-132 -307h265z" />
    <glyph glyph-name="Acircumflex" unicode="&#xc2;" horiz-adv-x="748" 
d="M296 758h-88l121 149h90l121 -149h-87l-78 90zM545 175h-341l-76 -175h-102l304 684h89l303 -684h-101zM507 263l-133 307l-132 -307h265z" />
    <glyph glyph-name="Adieresis" unicode="&#xc4;" horiz-adv-x="748" 
d="M276 762c-34 0 -61 26 -61 59s27 59 61 59s61 -26 61 -59s-27 -59 -61 -59zM473 762c-34 0 -61 26 -61 59s27 59 61 59s61 -26 61 -59s-27 -59 -61 -59zM545 175h-341l-76 -175h-102l304 684h89l303 -684h-101zM507 263l-133 307l-132 -307h265z" />
    <glyph glyph-name="Agrave" unicode="&#xc0;" horiz-adv-x="748" 
d="M343 757l-96 146h102l78 -146h-84zM545 175h-341l-76 -175h-102l304 684h89l303 -684h-101zM507 263l-133 307l-132 -307h265z" />
    <glyph glyph-name="Amacron" unicode="&#x100;" horiz-adv-x="748" 
d="M513 765h-279v75h279v-75zM545 175h-341l-76 -175h-102l304 684h89l303 -684h-101zM507 263l-133 307l-132 -307h265z" />
    <glyph glyph-name="Aogonek" unicode="&#x104;" horiz-adv-x="748" 
d="M729 -101l9 -69c-11 -5 -36 -9 -58 -9c-81 0 -136 43 -136 109c0 40 26 72 67 93l-66 152h-341l-76 -175h-102l304 684h89l303 -684h-37c-40 -12 -63 -30 -63 -60c0 -29 24 -45 70 -45c13 0 23 1 37 4zM507 263l-133 307l-132 -307h265z" />
    <glyph glyph-name="Aring" unicode="&#xc5;" horiz-adv-x="748" 
d="M374 767c-62 0 -106 42 -106 101s44 100 106 100c63 0 106 -41 106 -100s-43 -101 -106 -101zM374 919c-30 0 -52 -22 -52 -51c0 -30 22 -52 52 -52s52 22 52 52c0 29 -22 51 -52 51zM545 175h-341l-76 -175h-102l304 684h89l303 -684h-101zM507 263l-133 307l-132 -307
h265z" />
    <glyph glyph-name="Atilde" unicode="&#xc3;" horiz-adv-x="748" 
d="M384 787l-45 28c-35 23 -60 4 -60 -28h-75c0 109 97 132 156 96l44 -28c38 -25 61 -3 61 28h74c0 -109 -94 -134 -155 -96zM545 175h-341l-76 -175h-102l304 684h89l303 -684h-101zM507 263l-133 307l-132 -307h265z" />
    <glyph glyph-name="AE" unicode="&#xc6;" horiz-adv-x="1106" 
d="M663 592v-211h348v-88h-348v-205h388v-88h-483v175h-288l-134 -175h-117l529 680h493v-88h-388zM568 263v286l-220 -286h220z" />
    <glyph glyph-name="B" unicode="B" horiz-adv-x="699" 
d="M504 352c95 -18 141 -84 141 -166c0 -111 -96 -186 -247 -186h-312v680h302c139 0 224 -67 224 -174c0 -72 -40 -132 -108 -154zM181 596v-212h190c97 0 150 42 150 110c0 63 -52 102 -143 102h-197zM181 84h213c101 0 157 49 157 113c0 66 -58 102 -154 102h-216v-215z
" />
    <glyph glyph-name="C" unicode="C" horiz-adv-x="802" 
d="M415 78c117 0 200 66 228 173h98c-32 -158 -158 -265 -326 -265c-196 0 -354 152 -354 354s158 354 354 354c168 0 294 -107 326 -265h-98c-28 107 -111 173 -228 173c-146 0 -258 -110 -258 -262s112 -262 258 -262z" />
    <glyph glyph-name="Cacute" unicode="&#x106;" horiz-adv-x="802" 
d="M453 757h-84l78 146h102zM415 78c117 0 201 66 228 173h99c-32 -158 -159 -265 -327 -265c-196 0 -354 152 -354 354s158 354 354 354c168 0 295 -107 327 -265h-99c-27 107 -111 173 -228 173c-146 0 -257 -110 -257 -262s111 -262 257 -262z" />
    <glyph glyph-name="Ccaron" unicode="&#x10c;" horiz-adv-x="802" 
d="M370 752l-121 149h88l79 -90l78 90h87l-121 -149h-90zM415 78c117 0 201 66 228 173h99c-32 -158 -159 -265 -327 -265c-196 0 -354 152 -354 354s158 354 354 354c168 0 295 -107 327 -265h-99c-27 107 -111 173 -228 173c-146 0 -257 -110 -257 -262s111 -262 257 -262
z" />
    <glyph glyph-name="Ccedilla" unicode="&#xc7;" horiz-adv-x="802" 
d="M415 78c117 0 201 66 228 173h99c-32 -158 -159 -265 -327 -265c-196 0 -354 152 -354 354s158 354 354 354c168 0 295 -107 327 -265h-99c-27 107 -111 173 -228 173c-146 0 -257 -110 -257 -262s111 -262 257 -262zM375 -63h91l-56 -150h-80z" />
    <glyph glyph-name="Cdotaccent" unicode="&#x10a;" horiz-adv-x="802" 
d="M415 762c-34 0 -61 26 -61 59s27 59 61 59s61 -26 61 -59s-27 -59 -61 -59zM415 78c117 0 201 66 228 173h99c-32 -158 -159 -265 -327 -265c-196 0 -354 152 -354 354s158 354 354 354c168 0 295 -107 327 -265h-99c-27 107 -111 173 -228 173
c-146 0 -257 -110 -257 -262s111 -262 257 -262z" />
    <glyph glyph-name="D" unicode="D" horiz-adv-x="746" 
d="M86 680h246c209 0 360 -141 360 -336c0 -200 -151 -344 -360 -344h-246v680zM181 88h151c151 0 262 108 262 256c0 142 -111 248 -262 248h-151v-504z" />
    <glyph glyph-name="Eth" unicode="&#xd0;" horiz-adv-x="746" 
d="M86 680h246c209 0 360 -141 360 -336c0 -200 -151 -344 -360 -344h-246v291h-67v88h67v301zM181 88h151c151 0 262 108 262 256c0 142 -111 248 -262 248h-151v-213h158v-88h-158v-203z" />
    <glyph glyph-name="Dcaron" unicode="&#x10e;" horiz-adv-x="746" 
d="M298 752l-121 149h88l79 -90l78 90h87l-121 -149h-90zM86 680h246c209 0 360 -141 360 -336c0 -200 -151 -344 -360 -344h-246v680zM181 88h151c151 0 262 108 262 256c0 142 -111 248 -262 248h-151v-504z" />
    <glyph glyph-name="Dcroat" unicode="&#x110;" horiz-adv-x="746" 
d="M86 680h246c209 0 360 -141 360 -336c0 -200 -151 -344 -360 -344h-246v291h-67v88h67v301zM181 88h151c151 0 262 108 262 256c0 142 -111 248 -262 248h-151v-213h158v-88h-158v-203z" />
    <glyph glyph-name="E" unicode="E" horiz-adv-x="625" 
d="M181 592v-211h348v-88h-348v-205h388v-88h-483v680h483v-88h-388z" />
    <glyph glyph-name="Eacute" unicode="&#xc9;" horiz-adv-x="625" 
d="M363 757h-84l78 146h102zM181 592v-211h348v-88h-348v-205h388v-88h-483v680h483v-88h-388z" />
    <glyph glyph-name="Ecaron" unicode="&#x11a;" horiz-adv-x="625" 
d="M279 752l-121 149h88l79 -90l78 90h87l-121 -149h-90zM181 592v-211h348v-88h-348v-205h388v-88h-483v680h483v-88h-388z" />
    <glyph glyph-name="Ecircumflex" unicode="&#xca;" horiz-adv-x="625" 
d="M246 758h-88l121 149h90l121 -149h-87l-78 90zM181 592v-211h348v-88h-348v-205h388v-88h-483v680h483v-88h-388z" />
    <glyph glyph-name="Edieresis" unicode="&#xcb;" horiz-adv-x="625" 
d="M226 762c-34 0 -61 26 -61 59s27 59 61 59s61 -26 61 -59s-27 -59 -61 -59zM423 762c-34 0 -61 26 -61 59s27 59 61 59s61 -26 61 -59s-27 -59 -61 -59zM181 592v-211h348v-88h-348v-205h388v-88h-483v680h483v-88h-388z" />
    <glyph glyph-name="Edotaccent" unicode="&#x116;" horiz-adv-x="625" 
d="M325 762c-34 0 -61 26 -61 59s27 59 61 59s61 -26 61 -59s-27 -59 -61 -59zM181 592v-211h348v-88h-348v-205h388v-88h-483v680h483v-88h-388z" />
    <glyph glyph-name="Egrave" unicode="&#xc8;" horiz-adv-x="625" 
d="M294 757l-96 146h102l78 -146h-84zM181 592v-211h348v-88h-348v-205h388v-88h-483v680h483v-88h-388z" />
    <glyph glyph-name="Emacron" unicode="&#x112;" horiz-adv-x="625" 
d="M464 765h-279v75h279v-75zM181 592v-211h348v-88h-348v-205h388v-88h-483v680h483v-88h-388z" />
    <glyph glyph-name="Eogonek" unicode="&#x118;" horiz-adv-x="625" 
d="M599 -105l9 -69c-11 -5 -36 -9 -58 -9c-81 0 -136 43 -136 109c0 29 14 54 38 74h-366v680h483v-88h-388v-211h348v-88h-348v-205h388v-88c-48 -12 -77 -31 -77 -64c0 -29 24 -45 70 -45c13 0 23 1 37 4z" />
    <glyph glyph-name="F" unicode="F" horiz-adv-x="592" 
d="M181 592v-229h337v-88h-337v-275h-95v680h475v-88h-380z" />
    <glyph glyph-name="G" unicode="G" horiz-adv-x="826" 
d="M747 340v-340h-76l-7 125c-48 -85 -132 -139 -251 -139c-202 0 -352 158 -352 348c0 208 159 360 357 360c147 0 286 -85 325 -243h-102c-35 108 -133 151 -222 151c-148 0 -262 -109 -262 -268c0 -139 105 -256 256 -256c128 0 210 84 232 198h-239v88h341v-24z" />
    <glyph glyph-name="Gbreve" unicode="&#x11e;" horiz-adv-x="826" 
d="M416 761c-82 0 -149 50 -149 147h69c0 -61 39 -84 80 -84c40 0 80 23 80 84h69c0 -97 -67 -147 -149 -147zM747 340v-340h-76l-7 125c-48 -85 -132 -139 -251 -139c-202 0 -352 158 -352 348c0 208 159 360 357 360c147 0 286 -85 326 -243h-103
c-34 108 -133 151 -221 151c-149 0 -262 -109 -262 -268c0 -139 104 -256 255 -256c128 0 210 84 232 198h-239v88h342z" />
    <glyph glyph-name="Gcommaaccent" unicode="&#x122;" horiz-adv-x="826" 
d="M747 340v-340h-76l-7 125c-48 -85 -132 -139 -251 -139c-202 0 -352 158 -352 348c0 208 159 360 357 360c147 0 286 -85 326 -243h-103c-34 108 -133 151 -221 151c-149 0 -262 -109 -262 -268c0 -139 104 -256 255 -256c128 0 210 84 232 198h-239v88h342zM410 -58
c30 0 56 -22 56 -54c0 -23 -5 -30 -60 -130h-52l37 83c-26 8 -38 26 -38 48c0 29 26 53 57 53z" />
    <glyph glyph-name="Gdotaccent" unicode="&#x120;" horiz-adv-x="826" 
d="M416 762c-34 0 -61 26 -61 59s27 59 61 59s61 -26 61 -59s-27 -59 -61 -59zM747 340v-340h-76l-7 125c-48 -85 -132 -139 -251 -139c-202 0 -352 158 -352 348c0 208 159 360 357 360c147 0 286 -85 326 -243h-103c-34 108 -133 151 -221 151c-149 0 -262 -109 -262 -268
c0 -139 104 -256 255 -256c128 0 210 84 232 198h-239v88h342z" />
    <glyph glyph-name="H" unicode="H" horiz-adv-x="738" 
d="M652 680v-680h-96v291h-375v-291h-95v680h95v-301h375v301h96z" />
    <glyph glyph-name="Hbar" unicode="&#x126;" horiz-adv-x="738" 
d="M697 493h-46v-493h-95v291h-375v-291h-95v493h-52v79h52v108h95v-108h375v108h95v-108h46v-79zM556 493h-375v-114h375v114z" />
    <glyph glyph-name="I" unicode="I" horiz-adv-x="267" 
d="M181 680v-680h-95v680h95z" />
    <glyph glyph-name="IJ" unicode="&#x132;" horiz-adv-x="863" 
d="M181 680v-680h-95v680h95zM786 680v-431c0 -168 -99 -264 -254 -264c-136 0 -235 83 -248 220h97c9 -83 71 -131 157 -131c88 0 151 65 151 177v429h97z" />
    <glyph glyph-name="Iacute" unicode="&#xcd;" horiz-adv-x="267" 
d="M267 903l-96 -146h-84l78 146h102zM181 680v-680h-95v680h95z" />
    <glyph glyph-name="Icircumflex" unicode="&#xce;" horiz-adv-x="267" 
d="M134 848l-79 -90h-88l121 149h90l121 -149h-87zM181 680v-680h-95v680h95z" />
    <glyph glyph-name="Idieresis" unicode="&#xcf;" horiz-adv-x="267" 
d="M35 880c34 0 61 -26 61 -59s-27 -59 -61 -59s-61 26 -61 59s27 59 61 59zM232 880c34 0 61 -26 61 -59s-27 -59 -61 -59s-61 26 -61 59s27 59 61 59zM181 680v-680h-95v680h95z" />
    <glyph glyph-name="Idotaccent" unicode="&#x130;" horiz-adv-x="267" 
d="M134 764c-35 0 -63 26 -63 61c0 34 28 61 63 61s63 -27 63 -61c0 -35 -28 -61 -63 -61zM181 680v-680h-95v680h95z" />
    <glyph glyph-name="Igrave" unicode="&#xcc;" horiz-adv-x="267" 
d="M187 757h-84l-96 146h102zM181 680v-680h-95v680h95z" />
    <glyph glyph-name="Imacron" unicode="&#x12a;" horiz-adv-x="267" 
d="M273 840v-75h-279v75h279zM181 680v-680h-95v680h95z" />
    <glyph glyph-name="Iogonek" unicode="&#x12e;" horiz-adv-x="267" 
d="M211 -105l9 -69c-11 -5 -36 -9 -58 -9c-81 0 -136 43 -136 109c0 37 23 68 60 90v664h95v-680c-48 -12 -77 -31 -77 -64c0 -29 24 -45 70 -45c13 0 23 1 37 4z" />
    <glyph glyph-name="J" unicode="J" horiz-adv-x="596" 
d="M519 680v-431c0 -168 -99 -264 -254 -264c-136 0 -235 83 -248 220h97c9 -83 71 -131 157 -131c88 0 151 65 151 177v429h97z" />
    <glyph glyph-name="K" unicode="K" horiz-adv-x="707" 
d="M306 303l-125 -135v-168h-95v680h95v-381l359 381h115l-283 -306l316 -374h-121z" />
    <glyph glyph-name="Kcommaaccent" unicode="&#x136;" horiz-adv-x="707" 
d="M688 0h-120l-262 303l-125 -135v-168h-95v680h95v-381l358 381h116l-283 -306zM350 -58c30 0 56 -22 56 -54c0 -23 -5 -30 -60 -130h-52l37 83c-26 8 -38 26 -38 48c0 29 26 53 57 53z" />
    <glyph glyph-name="L" unicode="L" horiz-adv-x="578" 
d="M550 86v-86h-464v680h95v-594h369z" />
    <glyph glyph-name="Lacute" unicode="&#x139;" horiz-adv-x="578" 
d="M171 757h-84l78 146h102zM550 86v-86h-464v680h95v-594h369z" />
    <glyph glyph-name="Lcaron" unicode="&#x13d;" horiz-adv-x="578" 
d="M550 86v-86h-464v680h95v-594h369zM393 488h-71l8 192h94z" />
    <glyph glyph-name="Lcommaaccent" unicode="&#x13b;" horiz-adv-x="578" 
d="M550 86v-86h-464v680h95v-594h369zM326 -58c30 0 56 -22 56 -54c0 -23 -5 -30 -60 -130h-52l37 83c-26 8 -38 26 -38 48c0 29 26 53 57 53z" />
    <glyph glyph-name="Ldot" unicode="&#x13f;" horiz-adv-x="578" 
d="M550 86v-86h-464v680h95v-594h369zM381 273c-34 0 -61 26 -61 59s27 59 61 59s61 -26 61 -59s-27 -59 -61 -59z" />
    <glyph glyph-name="Lslash" unicode="&#x141;" horiz-adv-x="578" 
d="M550 86v-86h-464v244l-69 -31v82l69 31v354h95v-311l161 73v-81l-161 -73v-202h369z" />
    <glyph glyph-name="M" unicode="M" horiz-adv-x="849" 
d="M763 680v-680h-96v469l-212 -348h-61l-214 351l2 -472h-96v680h70l268 -441l268 441h71z" />
    <glyph glyph-name="N" unicode="N" horiz-adv-x="761" 
d="M675 680v-680h-78l-416 504v-504h-95v680h75l418 -512v512h96z" />
    <glyph glyph-name="Nacute" unicode="&#x143;" horiz-adv-x="761" 
d="M418 757h-84l78 146h102zM674 680v-680h-76l-417 504v-504h-95v680h75l418 -512v512h95z" />
    <glyph glyph-name="Ncaron" unicode="&#x147;" horiz-adv-x="761" 
d="M335 752l-121 149h88l79 -90l78 90h87l-121 -149h-90zM674 680v-680h-76l-417 504v-504h-95v680h75l418 -512v512h95z" />
    <glyph glyph-name="Ncommaaccent" unicode="&#x145;" horiz-adv-x="761" 
d="M674 680v-680h-76l-417 504v-504h-95v680h75l418 -512v512h95zM370 -58c30 0 56 -22 56 -54c0 -23 -5 -30 -60 -130h-52l37 83c-26 8 -38 26 -38 48c0 29 26 53 57 53z" />
    <glyph glyph-name="Ntilde" unicode="&#xd1;" horiz-adv-x="761" 
d="M390 787l-45 28c-35 23 -60 4 -60 -28h-75c0 109 97 132 156 96l44 -28c38 -25 61 -3 61 28h74c0 -109 -94 -134 -155 -96zM674 680v-680h-76l-417 504v-504h-95v680h75l418 -512v512h95z" />
    <glyph glyph-name="O" unicode="O" horiz-adv-x="830" 
d="M415 694c196 0 354 -158 354 -354s-158 -354 -354 -354s-354 158 -354 354s158 354 354 354zM415 75c145 0 257 120 257 265s-112 265 -257 265c-146 0 -258 -120 -258 -265s112 -265 258 -265z" />
    <glyph glyph-name="Oacute" unicode="&#xd3;" horiz-adv-x="830" 
d="M549 903l-96 -146h-84l78 146h102zM415 694c196 0 354 -158 354 -354s-158 -354 -354 -354s-354 158 -354 354s158 354 354 354zM414 75c146 0 258 120 258 265s-112 265 -258 265c-145 0 -257 -120 -257 -265s112 -265 257 -265z" />
    <glyph glyph-name="Ocircumflex" unicode="&#xd4;" horiz-adv-x="830" 
d="M415 848l-79 -90h-88l121 149h90l121 -149h-87zM415 694c196 0 354 -158 354 -354s-158 -354 -354 -354s-354 158 -354 354s158 354 354 354zM414 75c146 0 258 120 258 265s-112 265 -258 265c-145 0 -257 -120 -257 -265s112 -265 257 -265z" />
    <glyph glyph-name="Odieresis" unicode="&#xd6;" horiz-adv-x="830" 
d="M316 880c34 0 61 -26 61 -59s-27 -59 -61 -59s-61 26 -61 59s27 59 61 59zM513 880c34 0 61 -26 61 -59s-27 -59 -61 -59s-61 26 -61 59s27 59 61 59zM415 694c196 0 354 -158 354 -354s-158 -354 -354 -354s-354 158 -354 354s158 354 354 354zM414 75
c146 0 258 120 258 265s-112 265 -258 265c-145 0 -257 -120 -257 -265s112 -265 257 -265z" />
    <glyph glyph-name="Ograve" unicode="&#xd2;" horiz-adv-x="830" 
d="M468 757h-84l-96 146h102zM415 694c196 0 354 -158 354 -354s-158 -354 -354 -354s-354 158 -354 354s158 354 354 354zM414 75c146 0 258 120 258 265s-112 265 -258 265c-145 0 -257 -120 -257 -265s112 -265 257 -265z" />
    <glyph glyph-name="Ohungarumlaut" unicode="&#x150;" horiz-adv-x="830" 
d="M460 903l-83 -146h-78l65 146h96zM600 903l-82 -146h-78l65 146h95zM415 694c196 0 354 -158 354 -354s-158 -354 -354 -354s-354 158 -354 354s158 354 354 354zM414 75c146 0 258 120 258 265s-112 265 -258 265c-145 0 -257 -120 -257 -265s112 -265 257 -265z" />
    <glyph glyph-name="Omacron" unicode="&#x14c;" horiz-adv-x="830" 
d="M554 840v-75h-279v75h279zM415 694c196 0 354 -158 354 -354s-158 -354 -354 -354s-354 158 -354 354s158 354 354 354zM414 75c146 0 258 120 258 265s-112 265 -258 265c-145 0 -257 -120 -257 -265s112 -265 257 -265z" />
    <glyph glyph-name="Oslash" unicode="&#xd8;" horiz-adv-x="830" 
d="M720 646l-50 -60c61 -63 99 -150 99 -246c0 -196 -158 -354 -354 -354c-74 0 -142 22 -198 60l-56 -66l-58 49l56 66c-61 64 -98 150 -98 245c0 196 158 354 354 354c73 0 140 -22 196 -59l50 59zM157 340c0 -66 23 -126 62 -173l333 397c-39 26 -87 41 -138 41
c-145 0 -257 -120 -257 -265zM414 75c146 0 258 120 258 265c0 66 -23 127 -63 174l-334 -398c40 -26 87 -41 139 -41z" />
    <glyph glyph-name="Otilde" unicode="&#xd5;" horiz-adv-x="830" 
d="M505 883h74c0 -109 -94 -134 -155 -96l-45 28c-35 23 -60 4 -60 -28h-75c0 109 97 132 156 96l44 -28c38 -25 61 -3 61 28zM415 694c196 0 354 -158 354 -354s-158 -354 -354 -354s-354 158 -354 354s158 354 354 354zM414 75c146 0 258 120 258 265s-112 265 -258 265
c-145 0 -257 -120 -257 -265s112 -265 257 -265z" />
    <glyph glyph-name="OE" unicode="&#x152;" horiz-adv-x="1007" 
d="M564 592v-211h348v-88h-348v-205h388v-88h-532c-220 0 -378 144 -378 340s158 340 378 340h532v-88h-388zM469 90v501h-49c-169 0 -281 -106 -281 -251s112 -251 281 -251z" />
    <glyph glyph-name="P" unicode="P" horiz-adv-x="630" 
d="M86 680h246c159 0 265 -92 265 -230c0 -144 -111 -239 -277 -239h-139v-211h-95v680zM181 299h148c104 0 174 61 174 151c0 85 -70 142 -174 142h-148v-293z" />
    <glyph glyph-name="Thorn" unicode="&#xde;" horiz-adv-x="630" 
d="M181 577h151c159 0 265 -92 265 -230c0 -144 -111 -239 -277 -239h-139v-108h-95v680h95v-103zM181 196h148c104 0 174 60 174 151c0 85 -70 142 -174 142h-148v-293z" />
    <glyph glyph-name="Q" unicode="Q" horiz-adv-x="830" 
d="M769 340c0 -119 -58 -224 -148 -288l121 -147l-70 -65l-137 167c-38 -14 -78 -21 -120 -21c-196 0 -354 158 -354 354s158 354 354 354s354 -158 354 -354zM414 75c146 0 258 120 258 265s-112 265 -258 265c-145 0 -257 -120 -257 -265s112 -265 257 -265z" />
    <glyph glyph-name="R" unicode="R" horiz-adv-x="679" 
d="M333 235h-152v-235h-95v680h266c153 0 261 -86 261 -222c0 -108 -67 -184 -171 -212l206 -246h-117zM181 323h168c97 0 170 51 170 135c0 83 -73 134 -170 134h-168v-269z" />
    <glyph glyph-name="Racute" unicode="&#x154;" horiz-adv-x="679" 
d="M349 757h-84l78 146h102zM333 235h-152v-235h-95v680h266c153 0 262 -86 262 -222c0 -108 -68 -184 -172 -212l206 -246h-117zM181 323h168c97 0 170 51 170 135c0 83 -73 134 -170 134h-168v-269z" />
    <glyph glyph-name="Rcaron" unicode="&#x158;" horiz-adv-x="679" 
d="M265 752l-121 149h88l79 -90l78 90h87l-121 -149h-90zM333 235h-152v-235h-95v680h266c153 0 262 -86 262 -222c0 -108 -68 -184 -172 -212l206 -246h-117zM181 323h168c97 0 170 51 170 135c0 83 -73 134 -170 134h-168v-269z" />
    <glyph glyph-name="Rcommaaccent" unicode="&#x156;" horiz-adv-x="679" 
d="M648 0h-117l-198 235h-152v-235h-95v680h266c153 0 262 -86 262 -222c0 -108 -68 -184 -172 -212zM181 323h168c97 0 170 51 170 135c0 83 -73 134 -170 134h-168v-269zM333 -58c30 0 56 -22 56 -54c0 -23 -5 -30 -60 -130h-52l37 83c-26 8 -38 26 -38 48
c0 29 26 53 57 53z" />
    <glyph glyph-name="S" unicode="S" horiz-adv-x="664" 
d="M332 695c129 0 254 -58 271 -208h-95c-13 76 -66 126 -170 126c-92 0 -153 -44 -153 -114c0 -57 45 -89 125 -104l95 -19c125 -24 196 -78 196 -181c0 -126 -103 -209 -258 -209c-165 0 -274 87 -288 234h95c15 -93 84 -149 198 -149c96 0 155 44 155 112
c0 47 -31 86 -114 101l-115 22c-128 24 -190 89 -190 186c0 121 99 203 248 203z" />
    <glyph glyph-name="Sacute" unicode="&#x15a;" horiz-adv-x="664" 
d="M466 903l-96 -146h-84l78 146h102zM331 695c129 0 254 -58 271 -208h-94c-14 76 -66 126 -170 126c-93 0 -153 -44 -153 -114c0 -57 44 -89 125 -104l94 -19c125 -24 197 -78 197 -181c0 -126 -103 -209 -258 -209c-165 0 -274 87 -288 234h95c14 -93 84 -149 198 -149
c95 0 155 44 155 112c0 47 -31 86 -114 101l-115 22c-129 24 -190 89 -190 186c0 121 99 203 247 203z" />
    <glyph glyph-name="Scaron" unicode="&#x160;" horiz-adv-x="664" 
d="M497 901l-121 -149h-90l-121 149h88l79 -90l78 90h87zM331 695c129 0 254 -58 271 -208h-94c-14 76 -66 126 -170 126c-93 0 -153 -44 -153 -114c0 -57 44 -89 125 -104l94 -19c125 -24 197 -78 197 -181c0 -126 -103 -209 -258 -209c-165 0 -274 87 -288 234h95
c14 -93 84 -149 198 -149c95 0 155 44 155 112c0 47 -31 86 -114 101l-115 22c-129 24 -190 89 -190 186c0 121 99 203 247 203z" />
    <glyph glyph-name="Scedilla" unicode="&#x15e;" horiz-adv-x="664" 
d="M331 695c129 0 254 -58 271 -208h-94c-14 76 -66 126 -170 126c-93 0 -153 -44 -153 -114c0 -57 44 -89 125 -104l94 -19c125 -24 197 -78 197 -181c0 -126 -103 -209 -258 -209c-165 0 -274 87 -288 234h95c14 -93 84 -149 198 -149c95 0 155 44 155 112
c0 47 -31 86 -114 101l-115 22c-129 24 -190 89 -190 186c0 121 99 203 247 203zM340 -213h-80l45 150h91z" />
    <glyph glyph-name="Scommaaccent" unicode="&#x218;" horiz-adv-x="664" 
d="M331 695c129 0 254 -58 271 -208h-94c-14 76 -66 126 -170 126c-93 0 -153 -44 -153 -114c0 -57 44 -89 125 -104l94 -19c125 -24 197 -78 197 -181c0 -126 -103 -209 -258 -209c-165 0 -274 87 -288 234h95c14 -93 84 -149 198 -149c95 0 155 44 155 112
c0 47 -31 86 -114 101l-115 22c-129 24 -190 89 -190 186c0 121 99 203 247 203zM288 -242l37 83c-25 8 -37 26 -37 48c0 29 25 53 56 53c30 0 57 -22 57 -54c0 -23 -5 -30 -60 -130h-53z" />
    <glyph glyph-name="T" unicode="T" horiz-adv-x="641" 
d="M613 592h-245v-592h-95v592h-245v88h585v-88z" />
    <glyph glyph-name="Tcaron" unicode="&#x164;" horiz-adv-x="641" 
d="M275 752l-121 149h88l79 -90l78 90h87l-121 -149h-90zM613 592h-245v-592h-95v592h-245v88h585v-88z" />
    <glyph glyph-name="Tcedilla" unicode="&#x162;" horiz-adv-x="641" 
d="M613 592h-245v-592h-95v592h-245v88h585v-88zM277 -63h91l-56 -150h-80z" />
    <glyph glyph-name="uni021A" unicode="&#x21a;" horiz-adv-x="641" 
d="M613 592h-245v-592h-95v592h-245v88h585v-88zM305 -58c30 0 56 -22 56 -54c0 -23 -5 -30 -60 -130h-52l37 83c-26 8 -38 26 -38 48c0 29 26 53 57 53z" />
    <glyph glyph-name="U" unicode="U" horiz-adv-x="742" 
d="M666 680v-385c0 -186 -118 -310 -295 -310s-295 124 -295 310v385h95v-385c0 -128 80 -221 200 -221s200 93 200 221v385h95z" />
    <glyph glyph-name="Uacute" unicode="&#xda;" horiz-adv-x="742" 
d="M505 903l-96 -146h-84l78 146h102zM666 680v-385c0 -186 -118 -310 -295 -310s-295 124 -295 310v385h95v-385c0 -128 80 -221 200 -221s200 93 200 221v385h95z" />
    <glyph glyph-name="Ucircumflex" unicode="&#xdb;" horiz-adv-x="742" 
d="M372 848l-79 -90h-88l121 149h90l121 -149h-87zM666 680v-385c0 -186 -118 -310 -295 -310s-295 124 -295 310v385h95v-385c0 -128 80 -221 200 -221s200 93 200 221v385h95z" />
    <glyph glyph-name="Udieresis" unicode="&#xdc;" horiz-adv-x="742" 
d="M273 880c34 0 61 -26 61 -59s-27 -59 -61 -59s-61 26 -61 59s27 59 61 59zM470 880c34 0 61 -26 61 -59s-27 -59 -61 -59s-61 26 -61 59s27 59 61 59zM666 680v-385c0 -186 -118 -310 -295 -310s-295 124 -295 310v385h95v-385c0 -128 80 -221 200 -221s200 93 200 221
v385h95z" />
    <glyph glyph-name="Ugrave" unicode="&#xd9;" horiz-adv-x="742" 
d="M425 757h-84l-96 146h102zM666 680v-385c0 -186 -118 -310 -295 -310s-295 124 -295 310v385h95v-385c0 -128 80 -221 200 -221s200 93 200 221v385h95z" />
    <glyph glyph-name="Uhungarumlaut" unicode="&#x170;" horiz-adv-x="742" 
d="M416 903l-83 -146h-78l65 146h96zM556 903l-82 -146h-78l65 146h95zM666 680v-385c0 -186 -118 -310 -295 -310s-295 124 -295 310v385h95v-385c0 -128 80 -221 200 -221s200 93 200 221v385h95z" />
    <glyph glyph-name="Umacron" unicode="&#x16a;" horiz-adv-x="742" 
d="M510 840v-75h-279v75h279zM666 680v-385c0 -186 -118 -310 -295 -310s-295 124 -295 310v385h95v-385c0 -128 80 -221 200 -221s200 93 200 221v385h95z" />
    <glyph glyph-name="Uogonek" unicode="&#x172;" horiz-adv-x="742" 
d="M666 680v-385c0 -137 -64 -241 -169 -286c-55 -37 -74 -65 -74 -94c0 -28 21 -50 67 -50c13 0 24 2 37 5l9 -78c-11 -3 -36 -7 -58 -7c-81 0 -133 43 -133 109c0 32 16 62 45 92l-19 -1c-177 0 -295 124 -295 310v385h95v-385c0 -128 80 -221 200 -221s200 93 200 221
v385h95z" />
    <glyph glyph-name="Uring" unicode="&#x16e;" horiz-adv-x="742" 
d="M371 968c63 0 106 -41 106 -100s-43 -101 -106 -101c-62 0 -106 42 -106 101s44 100 106 100zM371 816c30 0 52 22 52 52c0 29 -22 51 -52 51s-52 -22 -52 -51c0 -30 22 -52 52 -52zM666 680v-385c0 -186 -118 -310 -295 -310s-295 124 -295 310v385h95v-385
c0 -128 80 -221 200 -221s200 93 200 221v385h95z" />
    <glyph glyph-name="V" unicode="V" horiz-adv-x="758" 
d="M734 680l-311 -684h-88l-311 684h105l250 -556l251 556h104z" />
    <glyph glyph-name="W" unicode="W" horiz-adv-x="1071" 
d="M1034 680l-229 -684h-94l-175 514l-176 -514h-93l-230 684h101l175 -537l182 537h82l181 -537l176 537h100z" />
    <glyph glyph-name="Wacute" unicode="&#x1e82;" horiz-adv-x="1071" 
d="M574 757h-84l78 146h102zM1034 680l-229 -684h-94l-175 514l-176 -514h-94l-229 684h100l176 -537l181 537h83l181 -536l176 536h100z" />
    <glyph glyph-name="Wcircumflex" unicode="&#x174;" horiz-adv-x="1071" 
d="M457 758h-88l121 149h90l121 -149h-87l-78 90zM1034 680l-229 -684h-94l-175 514l-176 -514h-94l-229 684h100l176 -537l181 537h83l181 -536l176 536h100z" />
    <glyph glyph-name="Wdieresis" unicode="&#x1e84;" horiz-adv-x="1071" 
d="M437 762c-34 0 -61 26 -61 59s27 59 61 59s61 -26 61 -59s-27 -59 -61 -59zM634 762c-34 0 -61 26 -61 59s27 59 61 59s61 -26 61 -59s-27 -59 -61 -59zM1034 680l-229 -684h-94l-175 514l-176 -514h-94l-229 684h100l176 -537l181 537h83l181 -536l176 536h100z" />
    <glyph glyph-name="Wgrave" unicode="&#x1e80;" horiz-adv-x="1071" 
d="M505 757l-96 146h102l78 -146h-84zM1034 680l-229 -684h-94l-175 514l-176 -514h-94l-229 684h100l176 -537l181 537h83l181 -536l176 536h100z" />
    <glyph glyph-name="X" unicode="X" horiz-adv-x="666" 
d="M535 0l-202 266l-202 -266h-111l249 337l-242 343h116l190 -267l189 267h117l-243 -343l250 -337h-111z" />
    <glyph glyph-name="Y" unicode="Y" horiz-adv-x="677" 
d="M664 680l-277 -444v-236h-97v236l-277 444h106l219 -352l220 352h106z" />
    <glyph glyph-name="Yacute" unicode="&#xdd;" horiz-adv-x="677" 
d="M376 757h-84l78 146h102zM663 680l-276 -444v-236h-97v236l-277 444h106l219 -352l219 352h106z" />
    <glyph glyph-name="Ycircumflex" unicode="&#x176;" horiz-adv-x="677" 
d="M260 758h-88l121 149h90l121 -149h-87l-78 90zM663 680l-276 -444v-236h-97v236l-277 444h106l219 -352l219 352h106z" />
    <glyph glyph-name="Ydieresis" unicode="&#x178;" horiz-adv-x="677" 
d="M240 762c-34 0 -61 26 -61 59s27 59 61 59s61 -26 61 -59s-27 -59 -61 -59zM437 762c-34 0 -61 26 -61 59s27 59 61 59s61 -26 61 -59s-27 -59 -61 -59zM663 680l-276 -444v-236h-97v236l-277 444h106l219 -352l219 352h106z" />
    <glyph glyph-name="Ygrave" unicode="&#x1ef2;" horiz-adv-x="677" 
d="M308 757l-96 146h102l78 -146h-84zM663 680l-276 -444v-236h-97v236l-277 444h106l219 -352l219 352h106z" />
    <glyph glyph-name="Z" unicode="Z" horiz-adv-x="654" 
d="M598 87v-87h-545v47l403 546h-390v87h528v-47l-392 -546h396z" />
    <glyph glyph-name="Zacute" unicode="&#x179;" horiz-adv-x="654" 
d="M365 757h-84l78 146h102zM597 87v-87h-544v47l403 546h-390v87h528v-47l-392 -546h395z" />
    <glyph glyph-name="Zcaron" unicode="&#x17d;" horiz-adv-x="654" 
d="M282 752l-121 149h88l79 -90l78 90h87l-121 -149h-90zM597 87v-87h-544v47l403 546h-390v87h528v-47l-392 -546h395z" />
    <glyph glyph-name="Zdotaccent" unicode="&#x17b;" horiz-adv-x="654" 
d="M327 762c-34 0 -61 26 -61 59s27 59 61 59s61 -26 61 -59s-27 -59 -61 -59zM597 87v-87h-544v47l403 546h-390v87h528v-47l-392 -546h395z" />
    <glyph glyph-name="R.ss02" horiz-adv-x="681" 
d="M219 235h-38v-235h-95v680h263c159 0 264 -86 264 -222c0 -134 -101 -220 -255 -223l293 -235h-136zM181 323h165c104 0 173 51 173 135c0 83 -69 134 -173 134h-165v-269z" />
    <glyph glyph-name="Racute.ss02" horiz-adv-x="681" 
d="M362 757h-84l78 146h102zM219 235h-38v-235h-95v680h263c159 0 265 -86 265 -222c0 -134 -102 -220 -256 -223l293 -235h-136zM181 323h165c104 0 173 51 173 135c0 83 -69 134 -173 134h-165v-269z" />
    <glyph glyph-name="Rcaron.ss02" horiz-adv-x="681" 
d="M279 752l-121 149h88l79 -90l78 90h87l-121 -149h-90zM219 235h-38v-235h-95v680h263c159 0 265 -86 265 -222c0 -134 -102 -220 -256 -223l293 -235h-136zM181 323h165c104 0 173 51 173 135c0 83 -69 134 -173 134h-165v-269z" />
    <glyph glyph-name="Rcommaaccent.ss02" horiz-adv-x="681" 
d="M651 0h-136l-296 235h-38v-235h-95v680h263c159 0 265 -86 265 -222c0 -134 -102 -220 -256 -223zM181 323h165c104 0 173 51 173 135c0 83 -69 134 -173 134h-165v-269zM331 -58c30 0 56 -22 56 -54c0 -23 -5 -30 -60 -130h-52l37 83c-26 8 -38 26 -38 48
c0 29 26 53 57 53z" />
    <glyph glyph-name="Q.ss03" horiz-adv-x="830" 
d="M415 694c196 0 354 -158 354 -354s-158 -354 -354 -354s-354 158 -354 354s158 354 354 354zM414 75c146 0 258 120 258 265s-112 265 -258 265c-145 0 -257 -120 -257 -265s112 -265 257 -265zM717 -127l-12 -91c-110 19 -218 45 -327 78l9 70z" />
    <glyph glyph-name="a" unicode="a" horiz-adv-x="615" 
d="M539 467v-467h-92v41c-40 -33 -94 -53 -156 -53c-132 0 -238 109 -238 245c0 137 106 246 238 246c62 0 116 -20 156 -53v41h92zM304 68c56 0 107 22 143 75v181c-36 53 -87 75 -143 75c-91 0 -159 -76 -159 -166c0 -88 68 -165 159 -165z" />
    <glyph glyph-name="aacute" unicode="&#xe1;" horiz-adv-x="615" 
d="M354 552h-84l78 146h102zM539 467v-467h-92v42c-40 -34 -93 -54 -156 -54c-133 0 -239 109 -239 245c0 137 106 246 239 246c63 0 116 -20 156 -54v42h92zM304 68c56 0 107 23 143 76v179c-36 53 -87 76 -143 76c-92 0 -160 -76 -160 -166c0 -88 68 -165 160 -165z" />
    <glyph glyph-name="abreve" unicode="&#x103;" horiz-adv-x="615" 
d="M316 539c-82 0 -149 50 -149 147h69c0 -61 39 -84 80 -84c40 0 80 23 80 84h69c0 -97 -67 -147 -149 -147zM539 467v-467h-92v42c-40 -34 -93 -54 -156 -54c-133 0 -239 109 -239 245c0 137 106 246 239 246c63 0 116 -20 156 -54v42h92zM304 68c56 0 107 23 143 76v179
c-36 53 -87 76 -143 76c-92 0 -160 -76 -160 -166c0 -88 68 -165 160 -165z" />
    <glyph glyph-name="acaron" unicode="&#x1ce;" horiz-adv-x="615" 
d="M270 544l-121 149h88l79 -90l78 90h87l-121 -149h-90zM539 467v-467h-92v42c-40 -34 -93 -54 -156 -54c-133 0 -239 109 -239 245c0 137 106 246 239 246c63 0 116 -20 156 -54v42h92zM304 68c56 0 107 23 143 76v179c-36 53 -87 76 -143 76c-92 0 -160 -76 -160 -166
c0 -88 68 -165 160 -165z" />
    <glyph glyph-name="acircumflex" unicode="&#xe2;" horiz-adv-x="615" 
d="M237 544h-88l121 149h90l121 -149h-87l-78 90zM539 467v-467h-92v42c-40 -34 -93 -54 -156 -54c-133 0 -239 109 -239 245c0 137 106 246 239 246c63 0 116 -20 156 -54v42h92zM304 68c56 0 107 23 143 76v179c-36 53 -87 76 -143 76c-92 0 -160 -76 -160 -166
c0 -88 68 -165 160 -165z" />
    <glyph glyph-name="adieresis" unicode="&#xe4;" horiz-adv-x="615" 
d="M218 565c-34 0 -61 26 -61 59s27 59 61 59s61 -26 61 -59s-27 -59 -61 -59zM415 565c-34 0 -61 26 -61 59s27 59 61 59s61 -26 61 -59s-27 -59 -61 -59zM539 467v-467h-92v42c-40 -34 -93 -54 -156 -54c-133 0 -239 109 -239 245c0 137 106 246 239 246
c63 0 116 -20 156 -54v42h92zM304 68c56 0 107 23 143 76v179c-36 53 -87 76 -143 76c-92 0 -160 -76 -160 -166c0 -88 68 -165 160 -165z" />
    <glyph glyph-name="agrave" unicode="&#xe0;" horiz-adv-x="615" 
d="M285 553l-96 146h102l78 -146h-84zM539 467v-467h-92v42c-40 -34 -93 -54 -156 -54c-133 0 -239 109 -239 245c0 137 106 246 239 246c63 0 116 -20 156 -54v42h92zM304 68c56 0 107 23 143 76v179c-36 53 -87 76 -143 76c-92 0 -160 -76 -160 -166
c0 -88 68 -165 160 -165z" />
    <glyph glyph-name="amacron" unicode="&#x101;" horiz-adv-x="615" 
d="M455 573h-279v75h279v-75zM539 467v-467h-92v42c-40 -34 -93 -54 -156 -54c-133 0 -239 109 -239 245c0 137 106 246 239 246c63 0 116 -20 156 -54v42h92zM304 68c56 0 107 23 143 76v179c-36 53 -87 76 -143 76c-92 0 -160 -76 -160 -166c0 -88 68 -165 160 -165z" />
    <glyph glyph-name="aogonek" unicode="&#x105;" horiz-adv-x="615" 
d="M569 -105l9 -69c-11 -5 -36 -9 -58 -9c-81 0 -136 43 -136 109c0 38 24 70 63 91v25c-40 -34 -93 -54 -156 -54c-133 0 -239 109 -239 245c0 137 106 246 239 246c63 0 116 -20 156 -54v42h92v-467c-48 -12 -77 -31 -77 -64c0 -29 24 -45 70 -45c13 0 23 1 37 4zM304 68
c56 0 107 23 143 76v179c-36 53 -87 76 -143 76c-92 0 -160 -76 -160 -166c0 -88 68 -165 160 -165z" />
    <glyph glyph-name="aring" unicode="&#xe5;" horiz-adv-x="615" 
d="M316 543c-62 0 -106 42 -106 101s44 100 106 100c63 0 106 -41 106 -100s-43 -101 -106 -101zM316 695c-30 0 -52 -22 -52 -51c0 -30 22 -52 52 -52s52 22 52 52c0 29 -22 51 -52 51zM539 467v-467h-92v42c-40 -34 -93 -54 -156 -54c-133 0 -239 109 -239 245
c0 137 106 246 239 246c63 0 116 -20 156 -54v42h92zM304 68c56 0 107 23 143 76v179c-36 53 -87 76 -143 76c-92 0 -160 -76 -160 -166c0 -88 68 -165 160 -165z" />
    <glyph glyph-name="atilde" unicode="&#xe3;" horiz-adv-x="615" 
d="M334 583l-45 28c-35 23 -60 4 -60 -28h-75c0 109 97 132 156 96l44 -28c38 -25 61 -3 61 28h74c0 -109 -94 -134 -155 -96zM539 467v-467h-92v42c-40 -34 -93 -54 -156 -54c-133 0 -239 109 -239 245c0 137 106 246 239 246c63 0 116 -20 156 -54v42h92zM304 68
c56 0 107 23 143 76v179c-36 53 -87 76 -143 76c-92 0 -160 -76 -160 -166c0 -88 68 -165 160 -165z" />
    <glyph glyph-name="ae" unicode="&#xe6;" horiz-adv-x="915" 
d="M863 238c0 -13 0 -27 -2 -40l-3 2v-2h-377c13 -73 66 -132 156 -132c55 0 96 22 115 58h99c-27 -83 -111 -136 -216 -136c-81 0 -148 33 -191 86c-49 -44 -113 -85 -206 -85c-117 0 -194 56 -194 149c0 84 66 129 175 129h171c0 75 -29 133 -120 133
c-59 0 -102 -28 -110 -75h-93c10 106 104 154 203 154c79 0 141 -30 176 -83c44 51 109 83 189 83c131 0 227 -100 228 -241zM481 267h289c-9 80 -60 133 -139 133c-85 0 -137 -58 -150 -131v-2zM243 66c60 0 110 18 166 66c-9 20 -15 43 -18 66h-178c-53 0 -81 -22 -81 -56
c0 -41 37 -76 111 -76z" />
    <glyph glyph-name="b" unicode="b" horiz-adv-x="615" 
d="M324 479c132 0 239 -109 239 -245s-107 -245 -239 -245c-63 0 -116 20 -156 53v-42h-92v710h92v-284c40 33 93 53 156 53zM311 68c91 0 160 77 160 166s-69 165 -160 165c-56 0 -107 -23 -143 -76v-179c36 -52 87 -76 143 -76z" />
    <glyph glyph-name="c" unicode="c" horiz-adv-x="576" 
d="M299 72c67 0 117 37 130 93h94c-17 -105 -109 -177 -224 -177c-142 0 -246 107 -246 245c0 139 104 246 246 246c115 0 207 -72 224 -178h-94c-13 57 -63 94 -130 94c-94 0 -154 -72 -154 -162c0 -89 60 -161 154 -161z" />
    <glyph glyph-name="cacute" unicode="&#x107;" horiz-adv-x="576" 
d="M331 552h-84l78 146h102zM298 72c67 0 117 37 130 93h95c-18 -105 -109 -177 -225 -177c-141 0 -246 107 -246 245c0 139 105 246 246 246c116 0 207 -72 225 -178h-95c-13 57 -63 94 -130 94c-93 0 -154 -72 -154 -162c0 -89 61 -161 154 -161z" />
    <glyph glyph-name="ccaron" unicode="&#x10d;" horiz-adv-x="576" 
d="M247 544l-121 149h88l79 -90l78 90h87l-121 -149h-90zM298 72c67 0 117 37 130 93h95c-18 -105 -109 -177 -225 -177c-141 0 -246 107 -246 245c0 139 105 246 246 246c116 0 207 -72 225 -178h-95c-13 57 -63 94 -130 94c-93 0 -154 -72 -154 -162
c0 -89 61 -161 154 -161z" />
    <glyph glyph-name="ccedilla" unicode="&#xe7;" horiz-adv-x="576" 
d="M298 72c67 0 117 37 130 93h95c-18 -105 -109 -177 -225 -177c-141 0 -246 107 -246 245c0 139 105 246 246 246c116 0 207 -72 225 -178h-95c-13 57 -63 94 -130 94c-93 0 -154 -72 -154 -162c0 -89 61 -161 154 -161zM250 -63h91l-56 -150h-80z" />
    <glyph glyph-name="cdotaccent" unicode="&#x10b;" horiz-adv-x="576" 
d="M293 565c-34 0 -61 26 -61 59s27 59 61 59s61 -26 61 -59s-27 -59 -61 -59zM298 72c67 0 117 37 130 93h95c-18 -105 -109 -177 -225 -177c-141 0 -246 107 -246 245c0 139 105 246 246 246c116 0 207 -72 225 -178h-95c-13 57 -63 94 -130 94c-93 0 -154 -72 -154 -162
c0 -89 61 -161 154 -161z" />
    <glyph glyph-name="d" unicode="d" horiz-adv-x="615" 
d="M539 710v-710h-92v42c-40 -34 -94 -53 -156 -53c-132 0 -238 109 -238 245s106 245 238 245c62 0 116 -19 156 -53v284h92zM304 68c56 0 107 23 143 75v181c-36 53 -87 75 -143 75c-91 0 -159 -76 -159 -165s68 -166 159 -166z" />
    <glyph glyph-name="eth" unicode="&#xf0;" horiz-adv-x="592" 
d="M447 622l-55 -20c97 -92 158 -221 158 -369c0 -141 -108 -248 -248 -248c-142 0 -249 107 -249 248s107 246 249 246c38 0 74 -11 105 -30c-25 46 -59 86 -102 121l-156 -58l-24 63l112 41c-34 20 -71 38 -112 54l95 40c40 -16 77 -36 111 -60l92 34zM302 69
c90 0 155 73 155 164c0 90 -65 162 -155 162c-92 0 -157 -72 -157 -162c0 -91 65 -164 157 -164z" />
    <glyph glyph-name="dcaron" unicode="&#x10f;" horiz-adv-x="615" 
d="M447 710h92v-710h-92v42c-40 -33 -93 -53 -156 -53c-133 0 -239 109 -239 245s106 245 239 245c63 0 116 -20 156 -53v284zM719 710l-31 -192h-71l8 192h94zM304 68c56 0 107 24 143 76v179c-36 53 -87 76 -143 76c-92 0 -160 -76 -160 -165s68 -166 160 -166z" />
    <glyph glyph-name="dcroat" unicode="&#x111;" horiz-adv-x="615" 
d="M575 563h-36v-563h-92v42c-40 -33 -93 -53 -156 -53c-133 0 -239 109 -239 245s106 245 239 245c63 0 116 -20 156 -53v137h-181v76h181v71h92v-71h36v-76zM304 68c56 0 107 24 143 76v179c-36 53 -87 76 -143 76c-92 0 -160 -76 -160 -165s68 -166 160 -166z" />
    <glyph glyph-name="e" unicode="e" horiz-adv-x="578" 
d="M526 238c0 -13 0 -27 -2 -40l-2 1v-1h-378c13 -73 66 -132 157 -132c55 0 95 22 114 58h99c-27 -83 -111 -136 -216 -136c-146 0 -245 107 -245 245c0 139 99 246 245 246c132 0 227 -100 228 -241zM294 400c-85 0 -138 -58 -150 -133h289c-9 80 -60 133 -139 133z" />
    <glyph glyph-name="eacute" unicode="&#xe9;" horiz-adv-x="578" 
d="M333 552h-84l78 146h102zM525 238c0 -13 0 -27 -1 -40l-2 1v-1h-378c13 -73 66 -132 156 -132c55 0 96 22 115 58h98c-26 -83 -110 -136 -216 -136c-145 0 -245 107 -245 245c0 139 100 246 245 246c132 0 228 -100 228 -241zM294 400c-85 0 -138 -58 -150 -133h288
c-8 80 -59 133 -138 133z" />
    <glyph glyph-name="ecaron" unicode="&#x11b;" horiz-adv-x="578" 
d="M249 544l-121 149h88l79 -90l78 90h87l-121 -149h-90zM525 238c0 -13 0 -27 -1 -40l-2 1v-1h-378c13 -73 66 -132 156 -132c55 0 96 22 115 58h98c-26 -83 -110 -136 -216 -136c-145 0 -245 107 -245 245c0 139 100 246 245 246c132 0 228 -100 228 -241zM294 400
c-85 0 -138 -58 -150 -133h288c-8 80 -59 133 -138 133z" />
    <glyph glyph-name="ecircumflex" unicode="&#xea;" horiz-adv-x="578" 
d="M216 544h-88l121 149h90l121 -149h-87l-78 90zM525 238c0 -13 0 -27 -1 -40l-2 1v-1h-378c13 -73 66 -132 156 -132c55 0 96 22 115 58h98c-26 -83 -110 -136 -216 -136c-145 0 -245 107 -245 245c0 139 100 246 245 246c132 0 228 -100 228 -241zM294 400
c-85 0 -138 -58 -150 -133h288c-8 80 -59 133 -138 133z" />
    <glyph glyph-name="edieresis" unicode="&#xeb;" horiz-adv-x="578" 
d="M197 565c-34 0 -61 26 -61 59s27 59 61 59s61 -26 61 -59s-27 -59 -61 -59zM394 565c-34 0 -61 26 -61 59s27 59 61 59s61 -26 61 -59s-27 -59 -61 -59zM525 238c0 -13 0 -27 -1 -40l-2 1v-1h-378c13 -73 66 -132 156 -132c55 0 96 22 115 58h98
c-26 -83 -110 -136 -216 -136c-145 0 -245 107 -245 245c0 139 100 246 245 246c132 0 228 -100 228 -241zM294 400c-85 0 -138 -58 -150 -133h288c-8 80 -59 133 -138 133z" />
    <glyph glyph-name="edotaccent" unicode="&#x117;" horiz-adv-x="578" 
d="M295 565c-34 0 -61 26 -61 59s27 59 61 59s61 -26 61 -59s-27 -59 -61 -59zM525 238c0 -13 0 -27 -1 -40l-2 1v-1h-378c13 -73 66 -132 156 -132c55 0 96 22 115 58h98c-26 -83 -110 -136 -216 -136c-145 0 -245 107 -245 245c0 139 100 246 245 246
c132 0 228 -100 228 -241zM294 400c-85 0 -138 -58 -150 -133h288c-8 80 -59 133 -138 133z" />
    <glyph glyph-name="egrave" unicode="&#xe8;" horiz-adv-x="578" 
d="M264 553l-96 146h102l78 -146h-84zM525 238c0 -13 0 -27 -1 -40l-2 1v-1h-378c13 -73 66 -132 156 -132c55 0 96 22 115 58h98c-26 -83 -110 -136 -216 -136c-145 0 -245 107 -245 245c0 139 100 246 245 246c132 0 228 -100 228 -241zM294 400c-85 0 -138 -58 -150 -133
h288c-8 80 -59 133 -138 133z" />
    <glyph glyph-name="emacron" unicode="&#x113;" horiz-adv-x="578" 
d="M434 573h-279v75h279v-75zM525 238c0 -13 0 -27 -1 -40l-2 1v-1h-378c13 -73 66 -132 156 -132c55 0 96 22 115 58h98c-26 -83 -110 -136 -216 -136c-145 0 -245 107 -245 245c0 139 100 246 245 246c132 0 228 -100 228 -241zM294 400c-85 0 -138 -58 -150 -133h288
c-8 80 -59 133 -138 133z" />
    <glyph glyph-name="eogonek" unicode="&#x119;" horiz-adv-x="578" 
d="M525 238c0 -13 0 -27 -1 -40l-2 1v-1h-378c13 -73 66 -132 156 -132c55 0 96 22 115 58h98c-10 -33 -30 -62 -57 -84c-47 -39 -60 -58 -60 -92c0 -32 24 -51 69 -51c14 0 24 1 38 4l9 -69c-12 -4 -36 -9 -59 -9c-81 0 -135 44 -135 109c0 21 6 40 16 58
c-12 -1 -24 -2 -37 -2c-145 0 -245 107 -245 245c0 139 100 246 245 246c132 0 228 -100 228 -241zM294 400c-85 0 -138 -58 -150 -133h288c-8 80 -59 133 -138 133z" />
    <glyph glyph-name="f" unicode="f" horiz-adv-x="418" 
d="M230 467h186v-77h-186v-390h-92v390h-134v77h134v103c0 113 71 188 178 188c30 0 67 -4 102 -14l-13 -80c-25 5 -53 9 -72 9c-62 0 -103 -41 -103 -103v-103z" />
    <glyph glyph-name="g" unicode="g" horiz-adv-x="618" 
d="M539 467v-474c0 -143 -97 -232 -236 -232c-126 0 -221 75 -235 184h93c11 -60 64 -101 142 -101c85 0 144 55 144 149v69c-42 -34 -97 -54 -160 -54c-132 0 -235 108 -235 235c0 139 103 242 235 242c63 0 118 -20 160 -55v37h92zM300 87c57 0 110 24 147 78v163
c-37 54 -90 77 -147 77c-91 0 -156 -70 -156 -162c0 -79 65 -156 156 -156z" />
    <glyph glyph-name="gbreve" unicode="&#x11f;" horiz-adv-x="618" 
d="M314 539c-82 0 -149 50 -149 147h69c0 -61 39 -84 80 -84c40 0 80 23 80 84h69c0 -97 -67 -147 -149 -147zM539 467v-474c0 -143 -96 -232 -235 -232c-127 0 -222 75 -236 184h94c10 -60 64 -101 142 -101c84 0 143 55 143 149v69c-42 -34 -97 -54 -160 -54
c-132 0 -235 108 -235 235c0 139 103 242 235 242c63 0 118 -20 160 -55v37h92zM300 87c56 0 110 24 147 78v163c-37 54 -91 77 -147 77c-91 0 -156 -70 -156 -162c0 -79 65 -156 156 -156z" />
    <glyph glyph-name="gcommaaccent" unicode="&#x123;" horiz-adv-x="618" 
d="M309 562c-30 0 -57 23 -57 54c0 23 6 30 60 131h53l-37 -84c25 -8 37 -26 37 -47c0 -30 -25 -54 -56 -54zM539 467v-474c0 -143 -96 -232 -235 -232c-127 0 -222 75 -236 184h94c10 -60 64 -101 142 -101c84 0 143 55 143 149v69c-42 -34 -97 -54 -160 -54
c-132 0 -235 108 -235 235c0 139 103 242 235 242c63 0 118 -20 160 -55v37h92zM300 87c56 0 110 24 147 78v163c-37 54 -91 77 -147 77c-91 0 -156 -70 -156 -162c0 -79 65 -156 156 -156z" />
    <glyph glyph-name="gdotaccent" unicode="&#x121;" horiz-adv-x="618" 
d="M314 565c-34 0 -61 26 -61 59s27 59 61 59s61 -26 61 -59s-27 -59 -61 -59zM539 467v-474c0 -143 -96 -232 -235 -232c-127 0 -222 75 -236 184h94c10 -60 64 -101 142 -101c84 0 143 55 143 149v69c-42 -34 -97 -54 -160 -54c-132 0 -235 108 -235 235
c0 139 103 242 235 242c63 0 118 -20 160 -55v37h92zM300 87c56 0 110 24 147 78v163c-37 54 -91 77 -147 77c-91 0 -156 -70 -156 -162c0 -79 65 -156 156 -156z" />
    <glyph glyph-name="h" unicode="h" horiz-adv-x="589" 
d="M326 482c121 0 202 -85 202 -218v-264h-91v259c0 89 -50 140 -129 140c-50 0 -101 -28 -140 -78v-321h-92v710h92v-290c42 39 96 62 158 62z" />
    <glyph glyph-name="hbar" unicode="&#x127;" horiz-adv-x="586" 
d="M326 482c120 0 202 -85 202 -218v-264h-91v259c0 89 -50 140 -129 140c-49 0 -102 -28 -140 -77v-322h-92v582h-47v66h47v62h92v-62h159v-66h-159v-162c42 39 96 62 158 62z" />
    <glyph glyph-name="i" unicode="i" horiz-adv-x="266" 
d="M133 583c-34 0 -60 25 -60 58s26 58 60 58c33 0 60 -25 60 -58s-27 -58 -60 -58zM179 467v-467h-91v467h91z" />
    <glyph glyph-name="dotlessi" unicode="&#x131;" horiz-adv-x="266" 
d="M179 467v-467h-91v467h91z" />
    <glyph glyph-name="iacute" unicode="&#xed;" horiz-adv-x="266" 
d="M267 698l-96 -146h-84l78 146h102zM180 467v-467h-92v467h92z" />
    <glyph glyph-name="icircumflex" unicode="&#xee;" horiz-adv-x="266" 
d="M134 634l-79 -90h-88l121 149h90l121 -149h-87zM180 467v-467h-92v467h92z" />
    <glyph glyph-name="idieresis" unicode="&#xef;" horiz-adv-x="266" 
d="M35 683c34 0 61 -26 61 -59s-27 -59 -61 -59s-61 26 -61 59s27 59 61 59zM232 683c34 0 61 -26 61 -59s-27 -59 -61 -59s-61 26 -61 59s27 59 61 59zM180 467v-467h-92v467h92z" />
    <glyph glyph-name="i.loclTRK" horiz-adv-x="266" 
d="M133 583c-34 0 -60 25 -60 58s26 58 60 58c33 0 59 -25 59 -58s-26 -58 -59 -58zM180 467v-467h-92v467h92z" />
    <glyph glyph-name="igrave" unicode="&#xec;" horiz-adv-x="266" 
d="M186 553h-84l-96 146h102zM180 467v-467h-92v467h92z" />
    <glyph glyph-name="ij" unicode="&#x133;" horiz-adv-x="525" 
d="M133 583c-34 0 -60 25 -60 58s26 58 60 58c33 0 59 -25 59 -58s-26 -58 -59 -58zM392 583c-33 0 -60 25 -60 58s27 58 60 58s59 -25 59 -58s-26 -58 -59 -58zM180 467v-467h-92v467h92zM438 467v-449c0 -135 -43 -201 -188 -203l-7 80c78 4 103 32 103 112v460h92z" />
    <glyph glyph-name="imacron" unicode="&#x12b;" horiz-adv-x="266" 
d="M272 648v-75h-279v75h279zM180 467v-467h-92v467h92z" />
    <glyph glyph-name="iogonek" unicode="&#x12f;" horiz-adv-x="266" 
d="M133 583c-34 0 -60 25 -60 58s26 58 60 58c33 0 59 -25 59 -58s-26 -58 -59 -58zM209 -105l9 -69c-11 -5 -36 -9 -58 -9c-81 0 -136 43 -136 109c0 39 25 70 64 92v449h92v-467h-1c-48 -12 -77 -31 -77 -64c0 -29 24 -45 70 -45c13 0 23 1 37 4z" />
    <glyph glyph-name="j" unicode="j" horiz-adv-x="259" 
d="M126 583c-33 0 -60 25 -60 58s27 58 60 58s59 -25 59 -58s-26 -58 -59 -58zM172 467v-449c0 -135 -43 -201 -188 -203l-7 80c78 4 103 32 103 112v460h92z" />
    <glyph glyph-name="k" unicode="k" horiz-adv-x="569" 
d="M263 208l-91 -91v-117h-92v710h92v-472l234 229h117l-195 -195l227 -272h-119z" />
    <glyph glyph-name="kcommaaccent" unicode="&#x137;" horiz-adv-x="569" 
d="M556 0h-120l-173 208l-91 -91v-117h-92v710h92v-472l234 229h117l-195 -194zM288 -58c30 0 56 -22 56 -54c0 -23 -5 -30 -60 -130h-52l37 83c-26 8 -38 26 -38 48c0 29 26 53 57 53z" />
    <glyph glyph-name="l" unicode="l" horiz-adv-x="244" 
d="M168 710v-710h-92v710h92z" />
    <glyph glyph-name="lacute" unicode="&#x13a;" horiz-adv-x="244" 
d="M263 941l-96 -146h-84l78 146h102zM168 710v-710h-92v710h92z" />
    <glyph glyph-name="lcaron" unicode="&#x13e;" horiz-adv-x="252" 
d="M168 710v-710h-92v710h92zM326 710l-31 -192h-71l8 192h94z" />
    <glyph glyph-name="lcommaaccent" unicode="&#x13c;" horiz-adv-x="244" 
d="M168 710v-710h-92v710h92zM63 -242l37 83c-26 8 -38 26 -38 48c0 29 26 53 57 53c30 0 56 -22 56 -54c0 -23 -5 -30 -60 -130h-52z" />
    <glyph glyph-name="ldot" unicode="&#x140;" horiz-adv-x="368" 
d="M168 710v-710h-92v710h92zM266 264c-34 0 -61 26 -61 59s27 59 61 59s61 -26 61 -59s-27 -59 -61 -59z" />
    <glyph glyph-name="lslash" unicode="&#x142;" horiz-adv-x="244" 
d="M237 372l-69 -32v-340h-92v297l-69 -32v95l69 32v318h92v-276l69 32v-94z" />
    <glyph glyph-name="m" unicode="m" horiz-adv-x="907" 
d="M646 482c113 0 197 -85 197 -218v-264h-91v259c0 89 -46 140 -124 140c-46 0 -92 -22 -128 -77c4 -18 6 -38 6 -58v-264h-92v259c0 89 -46 140 -124 140c-43 0 -87 -24 -122 -75v-324h-92v467h92v-42c35 36 76 57 140 57c66 0 122 -28 157 -78c49 51 102 78 181 78z" />
    <glyph glyph-name="n" unicode="n" horiz-adv-x="589" 
d="M326 482c121 0 202 -85 202 -218v-264h-91v259c0 89 -50 140 -129 140c-50 0 -101 -28 -140 -78v-321h-92v467h92v-47c42 39 96 62 158 62z" />
    <glyph glyph-name="nacute" unicode="&#x144;" horiz-adv-x="589" 
d="M338 552h-84l78 146h102zM326 482c120 0 202 -85 202 -218v-264h-91v259c0 89 -50 140 -129 140c-49 0 -102 -28 -140 -77v-322h-92v467h92v-47c42 39 96 62 158 62z" />
    <glyph glyph-name="ncaron" unicode="&#x148;" horiz-adv-x="589" 
d="M255 544l-121 149h88l79 -90l78 90h87l-121 -149h-90zM326 482c120 0 202 -85 202 -218v-264h-91v259c0 89 -50 140 -129 140c-49 0 -102 -28 -140 -77v-322h-92v467h92v-47c42 39 96 62 158 62z" />
    <glyph glyph-name="ncommaaccent" unicode="&#x146;" horiz-adv-x="589" 
d="M326 482c120 0 202 -85 202 -218v-264h-91v259c0 89 -50 140 -129 140c-49 0 -102 -28 -140 -77v-322h-92v467h92v-47c42 39 96 62 158 62zM301 -58c30 0 56 -22 56 -54c0 -23 -5 -30 -60 -130h-52l37 83c-26 8 -38 26 -38 48c0 29 26 53 57 53z" />
    <glyph glyph-name="ntilde" unicode="&#xf1;" horiz-adv-x="589" 
d="M318 583l-45 28c-35 23 -60 4 -60 -28h-75c0 109 97 132 156 96l44 -28c38 -25 61 -3 61 28h74c0 -109 -94 -134 -155 -96zM326 482c120 0 202 -85 202 -218v-264h-91v259c0 89 -50 140 -129 140c-49 0 -102 -28 -140 -77v-322h-92v467h92v-47c42 39 96 62 158 62z" />
    <glyph glyph-name="o" unicode="o" horiz-adv-x="602" 
d="M302 479c140 0 248 -105 248 -246s-108 -248 -248 -248c-142 0 -249 107 -249 248s107 246 249 246zM302 69c90 0 155 73 155 164c0 90 -65 162 -155 162c-92 0 -157 -72 -157 -162c0 -91 65 -164 157 -164z" />
    <glyph glyph-name="oacute" unicode="&#xf3;" horiz-adv-x="602" 
d="M435 698l-96 -146h-84l78 146h102zM301 479c140 0 248 -105 248 -246s-108 -248 -248 -248c-141 0 -249 107 -249 248s108 246 249 246zM302 69c90 0 156 73 156 164c0 90 -66 162 -156 162c-91 0 -157 -72 -157 -162c0 -91 66 -164 157 -164z" />
    <glyph glyph-name="ocircumflex" unicode="&#xf4;" horiz-adv-x="602" 
d="M302 634l-79 -90h-88l121 149h90l121 -149h-87zM301 479c140 0 248 -105 248 -246s-108 -248 -248 -248c-141 0 -249 107 -249 248s108 246 249 246zM302 69c90 0 156 73 156 164c0 90 -66 162 -156 162c-91 0 -157 -72 -157 -162c0 -91 66 -164 157 -164z" />
    <glyph glyph-name="odieresis" unicode="&#xf6;" horiz-adv-x="602" 
d="M204 683c34 0 61 -26 61 -59s-27 -59 -61 -59s-61 26 -61 59s27 59 61 59zM401 683c34 0 61 -26 61 -59s-27 -59 -61 -59s-61 26 -61 59s27 59 61 59zM301 479c140 0 248 -105 248 -246s-108 -248 -248 -248c-141 0 -249 107 -249 248s108 246 249 246zM302 69
c90 0 156 73 156 164c0 90 -66 162 -156 162c-91 0 -157 -72 -157 -162c0 -91 66 -164 157 -164z" />
    <glyph glyph-name="ograve" unicode="&#xf2;" horiz-adv-x="602" 
d="M355 553h-84l-96 146h102zM301 479c140 0 248 -105 248 -246s-108 -248 -248 -248c-141 0 -249 107 -249 248s108 246 249 246zM302 69c90 0 156 73 156 164c0 90 -66 162 -156 162c-91 0 -157 -72 -157 -162c0 -91 66 -164 157 -164z" />
    <glyph glyph-name="ohungarumlaut" unicode="&#x151;" horiz-adv-x="602" 
d="M346 699l-83 -146h-78l65 146h96zM486 699l-82 -146h-78l65 146h95zM301 479c140 0 248 -105 248 -246s-108 -248 -248 -248c-141 0 -249 107 -249 248s108 246 249 246zM302 69c90 0 156 73 156 164c0 90 -66 162 -156 162c-91 0 -157 -72 -157 -162
c0 -91 66 -164 157 -164z" />
    <glyph glyph-name="omacron" unicode="&#x14d;" horiz-adv-x="602" 
d="M441 648v-75h-279v75h279zM301 479c140 0 248 -105 248 -246s-108 -248 -248 -248c-141 0 -249 107 -249 248s108 246 249 246zM302 69c90 0 156 73 156 164c0 90 -66 162 -156 162c-91 0 -157 -72 -157 -162c0 -91 66 -164 157 -164z" />
    <glyph glyph-name="oslash" unicode="&#xf8;" horiz-adv-x="602" 
d="M510 438l-28 -34c42 -43 67 -103 67 -171c0 -141 -108 -248 -248 -248c-51 0 -98 14 -137 39l-30 -36l-50 42l30 36c-39 43 -62 102 -62 167c0 141 108 246 249 246c48 0 93 -13 131 -35l29 35zM145 233c0 -36 10 -69 29 -96l201 240c-21 12 -46 18 -73 18
c-91 0 -157 -72 -157 -162zM302 69c90 0 156 73 156 164c0 39 -12 75 -34 102l-204 -243c24 -15 52 -23 82 -23z" />
    <glyph glyph-name="otilde" unicode="&#xf5;" horiz-adv-x="602" 
d="M400 679h74c0 -109 -94 -134 -155 -96l-45 28c-35 23 -60 4 -60 -28h-75c0 109 97 132 156 96l44 -28c38 -25 61 -3 61 28zM301 479c140 0 248 -105 248 -246s-108 -248 -248 -248c-141 0 -249 107 -249 248s108 246 249 246zM302 69c90 0 156 73 156 164
c0 90 -66 162 -156 162c-91 0 -157 -72 -157 -162c0 -91 66 -164 157 -164z" />
    <glyph glyph-name="oe" unicode="&#x153;" horiz-adv-x="984" 
d="M932 238c0 -13 0 -27 -2 -40l-3 2v-2h-377c13 -73 66 -132 156 -132c55 0 96 22 115 58h98c-26 -83 -110 -136 -215 -136c-87 0 -158 38 -201 98c-44 -62 -117 -101 -202 -101c-141 0 -249 107 -249 248s108 246 249 246c84 0 157 -38 202 -99c42 61 113 99 201 99
c131 0 227 -100 228 -241zM700 400c-85 0 -138 -58 -150 -133h288c-8 80 -59 133 -138 133zM302 69c90 0 156 73 156 164c0 90 -66 162 -156 162c-91 0 -157 -72 -157 -162c0 -91 66 -164 157 -164z" />
    <glyph glyph-name="p" unicode="p" horiz-adv-x="615" 
d="M324 479c132 0 239 -109 239 -246c0 -136 -107 -245 -239 -245c-63 0 -116 20 -156 54v-285h-92v710h92v-42c40 34 93 54 156 54zM311 68c91 0 160 77 160 165c0 90 -69 166 -160 166c-56 0 -107 -23 -143 -76v-179c36 -53 87 -76 143 -76z" />
    <glyph glyph-name="thorn" unicode="&#xfe;" horiz-adv-x="609" 
d="M324 479c132 0 239 -109 239 -246c0 -136 -107 -245 -239 -245c-63 0 -116 20 -156 54v-285h-92v923h92v-255c40 34 93 54 156 54zM311 68c91 0 160 77 160 165c0 90 -69 166 -160 166c-56 0 -107 -23 -143 -76v-179c36 -53 87 -76 143 -76z" />
    <glyph glyph-name="q" unicode="q" horiz-adv-x="615" 
d="M539 467v-710h-92v284c-40 -33 -94 -53 -156 -53c-132 0 -238 109 -238 245c0 137 106 246 238 246c62 0 116 -20 156 -53v41h92zM304 68c56 0 107 22 143 75v181c-36 53 -87 75 -143 75c-91 0 -159 -76 -159 -166c0 -88 68 -165 159 -165z" />
    <glyph glyph-name="r" unicode="r" horiz-adv-x="372" 
d="M168 467v-69c43 50 103 80 176 80v-87c-75 -2 -134 -34 -176 -92v-299h-92v467h92z" />
    <glyph glyph-name="racute" unicode="&#x155;" horiz-adv-x="372" 
d="M242 552h-84l78 146h102zM168 467v-68c43 50 103 79 176 79v-87c-76 -2 -135 -33 -176 -91v-300h-92v467h92z" />
    <glyph glyph-name="rcaron" unicode="&#x159;" horiz-adv-x="372" 
d="M159 544l-121 149h88l79 -90l78 90h87l-121 -149h-90zM168 467v-68c43 50 103 79 176 79v-87c-76 -2 -135 -33 -176 -91v-300h-92v467h92z" />
    <glyph glyph-name="rcommaaccent" unicode="&#x157;" horiz-adv-x="372" 
d="M168 467v-68c43 50 103 79 176 79v-87c-76 -2 -135 -33 -176 -91v-300h-92v467h92zM119 -58c30 0 56 -22 56 -54c0 -23 -5 -30 -60 -130h-52l37 83c-26 8 -38 26 -38 48c0 29 26 53 57 53z" />
    <glyph glyph-name="s" unicode="s" horiz-adv-x="519" 
d="M44 152l86 -1c12 -60 57 -91 134 -91c66 0 111 26 111 68c0 33 -27 54 -69 61l-104 18c-74 12 -139 47 -139 130c0 89 78 144 192 144c88 0 195 -35 205 -152l-85 -1c-7 55 -54 81 -119 81s-102 -27 -102 -64c0 -29 21 -53 79 -63l90 -15c69 -12 140 -43 140 -132
c0 -96 -85 -150 -202 -150c-114 0 -204 49 -217 167z" />
    <glyph glyph-name="sacute" unicode="&#x15b;" horiz-adv-x="519" 
d="M393 698l-96 -146h-84l78 146h102zM44 152l85 -1c12 -60 58 -91 134 -91c66 0 111 26 111 68c0 33 -26 54 -68 61l-105 18c-74 12 -138 47 -138 130c0 89 78 144 192 144c88 0 195 -35 205 -152l-86 -1c-6 55 -53 81 -119 81c-64 0 -101 -27 -101 -64
c0 -29 20 -53 79 -63l90 -15c69 -12 139 -43 139 -132c0 -96 -85 -150 -201 -150c-114 0 -204 49 -217 167z" />
    <glyph glyph-name="scaron" unicode="&#x161;" horiz-adv-x="519" 
d="M425 693l-121 -149h-90l-121 149h88l79 -90l78 90h87zM44 152l85 -1c12 -60 58 -91 134 -91c66 0 111 26 111 68c0 33 -26 54 -68 61l-105 18c-74 12 -138 47 -138 130c0 89 78 144 192 144c88 0 195 -35 205 -152l-86 -1c-6 55 -53 81 -119 81c-64 0 -101 -27 -101 -64
c0 -29 20 -53 79 -63l90 -15c69 -12 139 -43 139 -132c0 -96 -85 -150 -201 -150c-114 0 -204 49 -217 167z" />
    <glyph glyph-name="scedilla" unicode="&#x15f;" horiz-adv-x="519" 
d="M44 152l85 -1c12 -60 58 -91 134 -91c66 0 111 26 111 68c0 33 -26 54 -68 61l-105 18c-74 12 -138 47 -138 130c0 89 78 144 192 144c88 0 195 -35 205 -152l-86 -1c-6 55 -53 81 -119 81c-64 0 -101 -27 -101 -64c0 -29 20 -53 79 -63l90 -15c69 -12 139 -43 139 -132
c0 -96 -85 -150 -201 -150c-114 0 -204 49 -217 167zM254 -213h-80l45 150h91z" />
    <glyph glyph-name="scommaaccent" unicode="&#x219;" horiz-adv-x="519" 
d="M44 152l85 -1c12 -60 58 -91 134 -91c66 0 111 26 111 68c0 33 -26 54 -68 61l-105 18c-74 12 -138 47 -138 130c0 89 78 144 192 144c88 0 195 -35 205 -152l-86 -1c-6 55 -53 81 -119 81c-64 0 -101 -27 -101 -64c0 -29 20 -53 79 -63l90 -15c69 -12 139 -43 139 -132
c0 -96 -85 -150 -201 -150c-114 0 -204 49 -217 167zM184 -242l37 83c-26 8 -38 26 -38 48c0 29 26 53 57 53c30 0 56 -22 56 -54c0 -23 -5 -30 -60 -130h-52z" />
    <glyph glyph-name="germandbls" unicode="&#xdf;" horiz-adv-x="636" 
d="M569 409l-165 -199c118 -11 200 -84 200 -197c0 -124 -92 -217 -244 -217c-55 0 -110 8 -170 32v83c55 -23 115 -33 167 -33c110 0 158 64 158 133c0 75 -59 119 -140 119h-102v45l167 207h-276v-382h-91v564c0 113 75 188 188 188v-90c-58 0 -97 -39 -97 -98v-97h405
v-58z" />
    <glyph glyph-name="t" unicode="t" horiz-adv-x="438" 
d="M386 82l14 -79c-47 -14 -73 -18 -109 -18c-109 0 -172 68 -172 189v216h-115v77h115v172h92v-172h175v-77h-175v-216c0 -73 33 -104 97 -104c25 0 54 5 78 12z" />
    <glyph glyph-name="tcaron" unicode="&#x165;" horiz-adv-x="438" 
d="M339 520h-71l8 192h94zM386 82l13 -79c-47 -14 -72 -18 -108 -18c-110 0 -172 68 -172 189v216h-115v77h115v172h92v-172h175v-77h-175v-216c0 -73 33 -104 96 -104c26 0 54 5 79 12z" />
    <glyph glyph-name="tcedilla" unicode="&#x163;" horiz-adv-x="438" 
d="M386 82l13 -79c-47 -14 -72 -18 -108 -18c-110 0 -172 68 -172 189v216h-115v77h115v172h92v-172h175v-77h-175v-216c0 -73 33 -104 96 -104c26 0 54 5 79 12zM222 -63h91l-56 -150h-80z" />
    <glyph glyph-name="uni021B" unicode="&#x21b;" horiz-adv-x="438" 
d="M386 82l13 -79c-47 -14 -72 -18 -108 -18c-110 0 -172 68 -172 189v216h-115v77h115v172h92v-172h175v-77h-175v-216c0 -73 33 -104 96 -104c26 0 54 5 79 12zM242 -58c30 0 56 -22 56 -54c0 -23 -5 -30 -60 -130h-52l37 83c-26 8 -38 26 -38 48c0 29 26 53 57 53z" />
    <glyph glyph-name="u" unicode="u" horiz-adv-x="589" 
d="M513 467v-467h-92v46c-42 -38 -95 -61 -158 -61c-120 0 -202 85 -202 219v263h92v-258c0 -90 50 -140 128 -140c49 0 102 27 140 77v321h92z" />
    <glyph glyph-name="uacute" unicode="&#xfa;" horiz-adv-x="589" 
d="M329 552h-84l78 146h102zM513 467v-467h-92v46c-42 -38 -95 -61 -158 -61c-120 0 -202 85 -202 219v263h92v-258c0 -90 50 -140 128 -140c49 0 102 27 140 77v321h92z" />
    <glyph glyph-name="ucircumflex" unicode="&#xfb;" horiz-adv-x="589" 
d="M213 544h-88l121 149h90l121 -149h-87l-78 90zM513 467v-467h-92v46c-42 -38 -95 -61 -158 -61c-120 0 -202 85 -202 219v263h92v-258c0 -90 50 -140 128 -140c49 0 102 27 140 77v321h92z" />
    <glyph glyph-name="udieresis" unicode="&#xfc;" horiz-adv-x="589" 
d="M193 565c-34 0 -61 26 -61 59s27 59 61 59s61 -26 61 -59s-27 -59 -61 -59zM390 565c-34 0 -61 26 -61 59s27 59 61 59s61 -26 61 -59s-27 -59 -61 -59zM513 467v-467h-92v46c-42 -38 -95 -61 -158 -61c-120 0 -202 85 -202 219v263h92v-258c0 -90 50 -140 128 -140
c49 0 102 27 140 77v321h92z" />
    <glyph glyph-name="ugrave" unicode="&#xf9;" horiz-adv-x="589" 
d="M260 553l-96 146h102l78 -146h-84zM513 467v-467h-92v46c-42 -38 -95 -61 -158 -61c-120 0 -202 85 -202 219v263h92v-258c0 -90 50 -140 128 -140c49 0 102 27 140 77v321h92z" />
    <glyph glyph-name="uhungarumlaut" unicode="&#x171;" horiz-adv-x="589" 
d="M253 553h-78l65 146h96zM316 553l65 146h95l-82 -146h-78zM513 467v-467h-92v46c-42 -38 -95 -61 -158 -61c-120 0 -202 85 -202 219v263h92v-258c0 -90 50 -140 128 -140c49 0 102 27 140 77v321h92z" />
    <glyph glyph-name="umacron" unicode="&#x16b;" horiz-adv-x="589" 
d="M430 573h-279v75h279v-75zM513 467v-467h-92v46c-42 -38 -95 -61 -158 -61c-120 0 -202 85 -202 219v263h92v-258c0 -90 50 -140 128 -140c49 0 102 27 140 77v321h92z" />
    <glyph glyph-name="uogonek" unicode="&#x173;" horiz-adv-x="589" 
d="M543 -105l9 -69c-11 -5 -36 -9 -58 -9c-81 0 -136 43 -136 109c0 38 24 70 63 91v29c-42 -38 -95 -61 -158 -61c-120 0 -202 85 -202 219v263h92v-258c0 -90 50 -140 128 -140c49 0 102 27 140 77v321h92v-467c-48 -12 -77 -31 -77 -64c0 -29 24 -45 70 -45
c13 0 23 1 37 4z" />
    <glyph glyph-name="uring" unicode="&#x16f;" horiz-adv-x="589" 
d="M291 543c-62 0 -106 42 -106 101s44 100 106 100c63 0 106 -41 106 -100s-43 -101 -106 -101zM291 695c-30 0 -52 -22 -52 -51c0 -30 22 -52 52 -52s52 22 52 52c0 29 -22 51 -52 51zM513 467v-467h-92v46c-42 -38 -95 -61 -158 -61c-120 0 -202 85 -202 219v263h92v-258
c0 -90 50 -140 128 -140c49 0 102 27 140 77v321h92z" />
    <glyph glyph-name="v" unicode="v" horiz-adv-x="575" 
d="M548 467l-219 -467h-82l-219 467h97l163 -350l162 350h98z" />
    <glyph glyph-name="w" unicode="w" horiz-adv-x="786" 
d="M758 467l-175 -467h-82l-108 319l-108 -319h-82l-175 467h99l116 -322l110 322h79l110 -322l117 322h99z" />
    <glyph glyph-name="wacute" unicode="&#x1e83;" horiz-adv-x="786" 
d="M431 552h-84l78 146h102zM759 467l-176 -467h-82l-108 319l-109 -319h-81l-176 467h100l116 -323l110 323h79l110 -322l117 322h100z" />
    <glyph glyph-name="wcircumflex" unicode="&#x175;" horiz-adv-x="786" 
d="M314 544h-88l121 149h90l121 -149h-87l-78 90zM759 467l-176 -467h-82l-108 319l-109 -319h-81l-176 467h100l116 -323l110 323h79l110 -322l117 322h100z" />
    <glyph glyph-name="wdieresis" unicode="&#x1e85;" horiz-adv-x="786" 
d="M295 565c-34 0 -61 26 -61 59s27 59 61 59s61 -26 61 -59s-27 -59 -61 -59zM492 565c-34 0 -61 26 -61 59s27 59 61 59s61 -26 61 -59s-27 -59 -61 -59zM759 467l-176 -467h-82l-108 319l-109 -319h-81l-176 467h100l116 -323l110 323h79l110 -322l117 322h100z" />
    <glyph glyph-name="wgrave" unicode="&#x1e81;" horiz-adv-x="786" 
d="M362 553l-96 146h102l78 -146h-84zM759 467l-176 -467h-82l-108 319l-109 -319h-81l-176 467h100l116 -323l110 323h79l110 -322l117 322h100z" />
    <glyph glyph-name="x" unicode="x" horiz-adv-x="544" 
d="M408 0l-136 171l-136 -171h-110l184 235l-182 233h112l132 -166l131 166h113l-183 -233l185 -235h-110z" />
    <glyph glyph-name="y" unicode="y" horiz-adv-x="607" 
d="M573 468l-316 -710h-97l99 222l-236 488h99l184 -381l170 381h97z" />
    <glyph glyph-name="yacute" unicode="&#xfd;" horiz-adv-x="607" 
d="M340 552h-84l78 146h102zM574 468l-317 -710h-97l98 221l-235 489h99l184 -382l170 382h98z" />
    <glyph glyph-name="ycircumflex" unicode="&#x177;" horiz-adv-x="607" 
d="M223 544h-88l121 149h90l121 -149h-87l-78 90zM574 468l-317 -710h-97l98 221l-235 489h99l184 -382l170 382h98z" />
    <glyph glyph-name="ydieresis" unicode="&#xff;" horiz-adv-x="607" 
d="M204 565c-34 0 -61 26 -61 59s27 59 61 59s61 -26 61 -59s-27 -59 -61 -59zM401 565c-34 0 -61 26 -61 59s27 59 61 59s61 -26 61 -59s-27 -59 -61 -59zM574 468l-317 -710h-97l98 221l-235 489h99l184 -382l170 382h98z" />
    <glyph glyph-name="ygrave" unicode="&#x1ef3;" horiz-adv-x="607" 
d="M271 553l-96 146h102l78 -146h-84zM574 468l-317 -710h-97l98 221l-235 489h99l184 -382l170 382h98z" />
    <glyph glyph-name="z" unicode="z" horiz-adv-x="495" 
d="M453 416l-275 -339h275v-77h-411v45l279 345h-270v77h402v-51z" />
    <glyph glyph-name="zacute" unicode="&#x17a;" horiz-adv-x="495" 
d="M285 552h-84l78 146h102zM453 416l-275 -339h275v-77h-411v45l279 345h-270v77h402v-51z" />
    <glyph glyph-name="zcaron" unicode="&#x17e;" horiz-adv-x="495" 
d="M202 544l-121 149h88l79 -90l78 90h87l-121 -149h-90zM453 416l-275 -339h275v-77h-411v45l279 345h-270v77h402v-51z" />
    <glyph glyph-name="zdotaccent" unicode="&#x17c;" horiz-adv-x="495" 
d="M248 565c-34 0 -61 26 -61 59s27 59 61 59s61 -26 61 -59s-27 -59 -61 -59zM453 416l-275 -339h275v-77h-411v45l279 345h-270v77h402v-51z" />
    <glyph glyph-name="germandbls.case" horiz-adv-x="1309" 
d="M331 695c129 0 254 -58 271 -208h-94c-14 76 -66 126 -170 126c-93 0 -153 -44 -153 -114c0 -57 44 -89 125 -104l94 -19c125 -24 197 -78 197 -181c0 -126 -103 -209 -258 -209c-165 0 -274 87 -288 234h95c14 -93 84 -149 198 -149c95 0 155 44 155 112
c0 47 -31 86 -114 101l-115 22c-129 24 -190 89 -190 186c0 121 99 203 247 203zM977 695c129 0 254 -58 271 -208h-95c-13 76 -66 126 -170 126c-92 0 -153 -44 -153 -114c0 -57 45 -89 125 -104l95 -19c125 -24 196 -78 196 -181c0 -126 -103 -209 -258 -209
c-165 0 -274 87 -288 234h95c15 -93 84 -149 198 -149c96 0 155 44 155 112c0 47 -31 86 -114 101l-115 22c-128 24 -190 89 -190 186c0 121 99 203 248 203z" />
    <glyph glyph-name="l.ss01" horiz-adv-x="367" 
d="M172 710v-563c0 -51 23 -77 69 -77c21 0 51 6 76 12l13 -79c-40 -12 -71 -18 -103 -18c-95 0 -147 54 -147 156v569h92z" />
    <glyph glyph-name="lacute.ss01" horiz-adv-x="367" 
d="M263 941l-96 -146h-84l78 146h102zM172 710v-563c0 -51 24 -77 69 -77c21 0 51 6 76 12l13 -79c-40 -12 -71 -18 -102 -18c-95 0 -148 54 -148 156v569h92z" />
    <glyph glyph-name="lcaron.ss01" horiz-adv-x="367" 
d="M172 710v-563c0 -51 24 -77 69 -77c21 0 51 6 76 12l13 -79c-40 -12 -71 -18 -102 -18c-95 0 -148 54 -148 156v569h92zM345 710l-31 -192h-71l8 192h94z" />
    <glyph glyph-name="lcommaaccent.ss01" horiz-adv-x="367" 
d="M172 710v-563c0 -51 24 -77 69 -77c21 0 51 6 76 12l13 -79c-40 -12 -71 -18 -102 -18c-95 0 -148 54 -148 156v569h92zM144 -242l37 83c-26 8 -38 26 -38 48c0 29 26 53 57 53c30 0 56 -22 56 -54c0 -23 -5 -30 -60 -130h-52z" />
    <glyph glyph-name="ldot.ss01" horiz-adv-x="392" 
d="M172 710v-563c0 -51 24 -77 69 -77c21 0 51 6 76 12l13 -79c-40 -12 -71 -18 -102 -18c-95 0 -148 54 -148 156v569h92zM300 264c-34 0 -61 26 -61 59s27 59 61 59s61 -26 61 -59s-27 -59 -61 -59z" />
    <glyph glyph-name="lslash.ss01" horiz-adv-x="367" 
d="M317 82l13 -79c-40 -12 -71 -18 -102 -18c-95 0 -148 54 -148 156v156l-68 -32v95l68 31v319h92v-276l70 32v-94l-70 -33v-192c0 -51 24 -77 69 -77c21 0 51 6 76 12z" />
    <glyph glyph-name="y.ss04" horiz-adv-x="599" 
d="M523 467v-482c0 -139 -94 -224 -230 -224c-127 0 -220 76 -234 184h94c10 -59 62 -101 140 -101c81 0 138 52 138 141v80c-42 -39 -96 -61 -156 -61c-124 0 -204 85 -204 219v244h91v-239c0 -89 49 -140 131 -140c48 0 100 28 138 77v302h92z" />
    <glyph glyph-name="yacute.ss04" horiz-adv-x="599" 
d="M335 552h-84l78 146h102zM523 467v-482c0 -139 -94 -224 -230 -224c-127 0 -220 76 -234 184h94c10 -59 62 -101 140 -101c82 0 138 52 138 141v81c-43 -39 -96 -62 -156 -62c-124 0 -205 85 -205 219v244h92v-239c0 -89 49 -140 131 -140c48 0 100 28 138 78v301h92z
" />
    <glyph glyph-name="ycircumflex.ss04" horiz-adv-x="599" 
d="M219 544h-88l121 149h90l121 -149h-87l-78 90zM523 467v-482c0 -139 -94 -224 -230 -224c-127 0 -220 76 -234 184h94c10 -59 62 -101 140 -101c82 0 138 52 138 141v81c-43 -39 -96 -62 -156 -62c-124 0 -205 85 -205 219v244h92v-239c0 -89 49 -140 131 -140
c48 0 100 28 138 78v301h92z" />
    <glyph glyph-name="ydieresis.ss04" horiz-adv-x="599" 
d="M200 565c-34 0 -61 26 -61 59s27 59 61 59s61 -26 61 -59s-27 -59 -61 -59zM397 565c-34 0 -61 26 -61 59s27 59 61 59s61 -26 61 -59s-27 -59 -61 -59zM523 467v-482c0 -139 -94 -224 -230 -224c-127 0 -220 76 -234 184h94c10 -59 62 -101 140 -101
c82 0 138 52 138 141v81c-43 -39 -96 -62 -156 -62c-124 0 -205 85 -205 219v244h92v-239c0 -89 49 -140 131 -140c48 0 100 28 138 78v301h92z" />
    <glyph glyph-name="ygrave.ss04" horiz-adv-x="599" 
d="M267 553l-96 146h102l78 -146h-84zM523 467v-482c0 -139 -94 -224 -230 -224c-127 0 -220 76 -234 184h94c10 -59 62 -101 140 -101c82 0 138 52 138 141v81c-43 -39 -96 -62 -156 -62c-124 0 -205 85 -205 219v244h92v-239c0 -89 49 -140 131 -140c48 0 100 28 138 78
v301h92z" />
    <glyph glyph-name="a.ss06" horiz-adv-x="542" 
d="M274 479c130 0 207 -77 207 -208v-271h-90v35c-42 -26 -94 -46 -159 -46c-117 0 -188 56 -188 149c0 84 66 134 175 133h172c0 74 -32 129 -117 129c-59 0 -106 -28 -114 -75h-93c10 106 108 154 207 154zM243 66c53 0 98 14 148 51v84h-174c-59 0 -84 -29 -84 -62
c0 -42 36 -73 110 -73z" />
    <glyph glyph-name="aacute.ss06" horiz-adv-x="542" 
d="M316 552h-84l78 146h102zM482 271v-271h-91v35c-42 -26 -94 -46 -159 -46c-117 0 -188 56 -188 149c0 84 66 134 175 133h171c0 74 -31 129 -116 129c-59 0 -106 -28 -114 -75h-93c10 106 108 154 207 154c130 0 207 -77 208 -208zM243 66c53 0 98 14 148 51v84h-174
c-59 0 -85 -29 -85 -62c0 -42 37 -73 111 -73z" />
    <glyph glyph-name="abreve.ss06" horiz-adv-x="542" 
d="M278 539c-82 0 -149 50 -149 147h69c0 -61 39 -84 80 -84c40 0 80 23 80 84h69c0 -97 -67 -147 -149 -147zM482 271v-271h-91v35c-42 -26 -94 -46 -159 -46c-117 0 -188 56 -188 149c0 84 66 134 175 133h171c0 74 -31 129 -116 129c-59 0 -106 -28 -114 -75h-93
c10 106 108 154 207 154c130 0 207 -77 208 -208zM243 66c53 0 98 14 148 51v84h-174c-59 0 -85 -29 -85 -62c0 -42 37 -73 111 -73z" />
    <glyph glyph-name="acaron.ss06" horiz-adv-x="542" 
d="M232 544l-121 149h88l79 -90l78 90h87l-121 -149h-90zM482 271v-271h-91v35c-42 -26 -94 -46 -159 -46c-117 0 -188 56 -188 149c0 84 66 134 175 133h171c0 74 -31 129 -116 129c-59 0 -106 -28 -114 -75h-93c10 106 108 154 207 154c130 0 207 -77 208 -208zM243 66
c53 0 98 14 148 51v84h-174c-59 0 -85 -29 -85 -62c0 -42 37 -73 111 -73z" />
    <glyph glyph-name="acircumflex.ss06" horiz-adv-x="542" 
d="M199 544h-88l121 149h90l121 -149h-87l-78 90zM482 271v-271h-91v35c-42 -26 -94 -46 -159 -46c-117 0 -188 56 -188 149c0 84 66 134 175 133h171c0 74 -31 129 -116 129c-59 0 -106 -28 -114 -75h-93c10 106 108 154 207 154c130 0 207 -77 208 -208zM243 66
c53 0 98 14 148 51v84h-174c-59 0 -85 -29 -85 -62c0 -42 37 -73 111 -73z" />
    <glyph glyph-name="adieresis.ss06" horiz-adv-x="542" 
d="M180 565c-34 0 -61 26 -61 59s27 59 61 59s61 -26 61 -59s-27 -59 -61 -59zM377 565c-34 0 -61 26 -61 59s27 59 61 59s61 -26 61 -59s-27 -59 -61 -59zM482 271v-271h-91v35c-42 -26 -94 -46 -159 -46c-117 0 -188 56 -188 149c0 84 66 134 175 133h171
c0 74 -31 129 -116 129c-59 0 -106 -28 -114 -75h-93c10 106 108 154 207 154c130 0 207 -77 208 -208zM243 66c53 0 98 14 148 51v84h-174c-59 0 -85 -29 -85 -62c0 -42 37 -73 111 -73z" />
    <glyph glyph-name="agrave.ss06" horiz-adv-x="542" 
d="M247 553l-96 146h102l78 -146h-84zM482 271v-271h-91v35c-42 -26 -94 -46 -159 -46c-117 0 -188 56 -188 149c0 84 66 134 175 133h171c0 74 -31 129 -116 129c-59 0 -106 -28 -114 -75h-93c10 106 108 154 207 154c130 0 207 -77 208 -208zM243 66c53 0 98 14 148 51v84
h-174c-59 0 -85 -29 -85 -62c0 -42 37 -73 111 -73z" />
    <glyph glyph-name="amacron.ss06" horiz-adv-x="542" 
d="M417 573h-279v75h279v-75zM482 271v-271h-91v35c-42 -26 -94 -46 -159 -46c-117 0 -188 56 -188 149c0 84 66 134 175 133h171c0 74 -31 129 -116 129c-59 0 -106 -28 -114 -75h-93c10 106 108 154 207 154c130 0 207 -77 208 -208zM243 66c53 0 98 14 148 51v84h-174
c-59 0 -85 -29 -85 -62c0 -42 37 -73 111 -73z" />
    <glyph glyph-name="aogonek.ss06" horiz-adv-x="542" 
d="M511 -105l9 -69c-11 -5 -36 -9 -58 -9c-81 0 -136 43 -136 109c0 39 25 71 65 92v17c-42 -26 -94 -46 -159 -46c-117 0 -188 56 -188 149c0 84 66 134 175 133h171c0 74 -31 129 -116 129c-59 0 -106 -28 -114 -75h-93c10 106 108 154 207 154c130 0 207 -77 207 -208h1
v-271h-1c-48 -12 -77 -31 -77 -64c0 -29 24 -45 70 -45c13 0 23 1 37 4zM243 66c53 0 98 14 148 51v84h-174c-59 0 -85 -29 -85 -62c0 -42 37 -73 111 -73z" />
    <glyph glyph-name="aring.ss06" horiz-adv-x="542" 
d="M278 543c-62 0 -106 42 -106 101s44 100 106 100c63 0 106 -41 106 -100s-43 -101 -106 -101zM278 695c-30 0 -52 -22 -52 -51c0 -30 22 -52 52 -52s52 22 52 52c0 29 -22 51 -52 51zM482 271v-271h-91v35c-42 -26 -94 -46 -159 -46c-117 0 -188 56 -188 149
c0 84 66 134 175 133h171c0 74 -31 129 -116 129c-59 0 -106 -28 -114 -75h-93c10 106 108 154 207 154c130 0 207 -77 208 -208zM243 66c53 0 98 14 148 51v84h-174c-59 0 -85 -29 -85 -62c0 -42 37 -73 111 -73z" />
    <glyph glyph-name="atilde.ss06" horiz-adv-x="542" 
d="M296 583l-45 28c-35 23 -60 4 -60 -28h-75c0 109 97 132 156 96l44 -28c38 -25 61 -3 61 28h74c0 -109 -94 -134 -155 -96zM482 271v-271h-91v35c-42 -26 -94 -46 -159 -46c-117 0 -188 56 -188 149c0 84 66 134 175 133h171c0 74 -31 129 -116 129
c-59 0 -106 -28 -114 -75h-93c10 106 108 154 207 154c130 0 207 -77 208 -208zM243 66c53 0 98 14 148 51v84h-174c-59 0 -85 -29 -85 -62c0 -42 37 -73 111 -73z" />
    <glyph glyph-name="ordfeminine" unicode="&#xaa;" horiz-adv-x="353" 
d="M178 685c84 0 138 -51 138 -139v-181h-64v20c-26 -15 -58 -27 -98 -27c-77 0 -129 37 -129 100c0 56 44 88 120 88h107c0 48 -17 83 -74 83c-36 0 -68 -17 -73 -49h-64c5 73 73 105 137 105zM158 412c33 0 62 8 94 32v54h-111c-36 0 -54 -17 -54 -37c0 -27 23 -49 71 -49
z" />
    <glyph glyph-name="ordmasculine" unicode="&#xba;" horiz-adv-x="388" 
d="M194 687c94 0 165 -71 165 -164c0 -96 -71 -167 -165 -167s-165 71 -165 167c0 93 71 164 165 164zM194 416c58 0 99 47 99 107c0 57 -41 104 -99 104c-59 0 -100 -47 -100 -104c0 -60 41 -107 100 -107z" />
    <glyph glyph-name="zero" unicode="0" horiz-adv-x="718" 
d="M359 695c189 0 298 -148 298 -355s-109 -355 -298 -355c-188 0 -298 148 -298 355s110 355 298 355zM359 71c132 0 202 114 202 269s-70 269 -202 269s-202 -114 -202 -269s70 -269 202 -269z" />
    <glyph glyph-name="one" unicode="1" horiz-adv-x="511" 
d="M500 79v-79h-455v79h187v497l-176 -58v82l217 80h54v-601h173z" />
    <glyph glyph-name="two" unicode="2" horiz-adv-x="560" 
d="M510 79v-79h-452v50l215 240c78 85 131 137 131 203c0 63 -45 120 -132 120c-78 0 -131 -49 -140 -126h-94c5 124 92 208 230 208c146 0 231 -92 231 -203c0 -79 -50 -138 -146 -242l-154 -171h311z" />
    <glyph glyph-name="three" unicode="3" horiz-adv-x="562" 
d="M415 344c67 -30 105 -85 105 -159c0 -115 -93 -199 -233 -199c-146 0 -228 75 -243 188h92c14 -64 60 -106 151 -106c86 0 144 48 144 117c0 71 -59 117 -148 117h-54v77h54c76 0 126 47 126 115c0 71 -50 117 -127 117c-70 0 -121 -42 -129 -105h-93
c10 112 97 186 221 186c132 0 217 -81 217 -197c0 -67 -30 -120 -83 -151z" />
    <glyph glyph-name="four" unicode="4" horiz-adv-x="641" 
d="M597 144h-102v-144h-91v144h-360v59l202 477h97l-187 -454h248v211h91v-211h102v-82z" />
    <glyph glyph-name="five" unicode="5" horiz-adv-x="588" 
d="M181 426h119c141 0 234 -88 234 -212c0 -130 -98 -229 -242 -229c-145 0 -233 78 -254 198h93c18 -71 70 -116 161 -116c90 0 153 63 153 144c0 78 -60 133 -156 133l-196 -1l1 337h408v-85h-321v-169z" />
    <glyph glyph-name="six" unicode="6" horiz-adv-x="616" 
d="M309 459c148 0 255 -99 255 -234c0 -138 -107 -240 -256 -240c-150 0 -256 103 -256 237c0 58 22 107 58 163l201 295h112l-150 -223c11 1 23 2 36 2zM308 62c95 0 163 69 163 158c0 87 -68 155 -163 155c-47 0 -88 -14 -117 -40l-3 -4c-30 -40 -43 -73 -43 -113
c0 -87 68 -156 163 -156z" />
    <glyph glyph-name="seven" unicode="7" horiz-adv-x="503" 
d="M482 680v-58l-300 -622h-106l287 591h-349v89h468z" />
    <glyph glyph-name="eight" unicode="8" horiz-adv-x="624" 
d="M449 359c78 -31 123 -92 123 -170c0 -120 -101 -204 -260 -204s-260 84 -260 204c0 78 45 139 123 170c-59 29 -94 80 -94 148c0 109 96 188 231 188s231 -79 231 -188c0 -68 -35 -119 -94 -148zM312 620c-81 0 -138 -52 -138 -118c0 -69 57 -117 138 -117
s138 48 138 117c0 65 -57 118 -138 118zM312 64c92 0 156 57 156 131c0 72 -64 125 -156 125c-93 0 -156 -53 -156 -125c0 -75 63 -131 156 -131z" />
    <glyph glyph-name="nine" unicode="9" horiz-adv-x="616" 
d="M308 695c150 0 256 -103 256 -237c0 -58 -22 -107 -58 -162l-201 -296h-112l151 224c-12 -1 -24 -2 -37 -2c-148 0 -255 98 -255 233c0 138 107 240 256 240zM425 345l3 4c30 40 43 73 43 113c0 87 -68 156 -163 156s-163 -69 -163 -158c0 -87 68 -155 163 -155
c47 0 88 15 117 40z" />
    <glyph glyph-name="zero.osf" horiz-adv-x="660" 
d="M331 552c161 0 277 -111 277 -282c0 -170 -116 -282 -277 -282s-278 112 -278 282c0 171 117 282 278 282zM331 72c104 0 185 78 185 198s-81 198 -185 198c-106 0 -187 -78 -187 -198s81 -198 187 -198z" />
    <glyph glyph-name="one.osf" horiz-adv-x="511" 
d="M500 79v-79h-455v79h187v367l-176 -58v82l217 80h54v-471h173z" />
    <glyph glyph-name="two.osf" horiz-adv-x="556" 
d="M506 79v-79h-448v50l150 108c95 69 192 129 192 201c0 63 -42 110 -126 110c-81 0 -133 -48 -140 -125h-92c5 124 90 208 228 208c142 0 225 -85 225 -196c0 -105 -96 -165 -215 -244l-49 -33h275z" />
    <glyph glyph-name="three.osf" horiz-adv-x="562" 
d="M415 204c67 -30 105 -85 105 -159c0 -115 -93 -199 -233 -199c-146 0 -228 75 -243 188h92c14 -64 60 -106 151 -106c86 0 144 48 144 117c0 71 -59 117 -148 117h-54v77h54c76 0 126 47 126 115c0 71 -50 117 -127 117c-70 0 -121 -42 -129 -105h-93
c10 112 97 186 221 186c132 0 217 -81 217 -197c0 -67 -30 -120 -83 -151z" />
    <glyph glyph-name="four.osf" horiz-adv-x="641" 
d="M597 0h-102v-144h-91v144h-360v59l202 477h97l-187 -454h248v211h91v-211h102v-82z" />
    <glyph glyph-name="five.osf" horiz-adv-x="588" 
d="M181 289h119c141 0 234 -88 234 -212c0 -130 -98 -229 -242 -229c-145 0 -233 78 -254 198h93c18 -71 70 -116 161 -116c90 0 153 63 153 144c0 78 -60 133 -156 133l-196 -1l1 337h408v-85h-321v-169z" />
    <glyph glyph-name="six.osf" horiz-adv-x="616" 
d="M308 459c149 0 256 -99 256 -234c0 -138 -107 -240 -256 -240c-150 0 -256 103 -256 237c0 58 22 107 58 163l202 295h111l-150 -223c11 1 23 2 35 2zM308 62c95 0 163 69 163 158c0 87 -68 155 -163 155c-47 0 -88 -14 -117 -40l-3 -4c-30 -40 -44 -73 -44 -113
c0 -87 69 -156 164 -156z" />
    <glyph glyph-name="seven.osf" horiz-adv-x="503" 
d="M482 540v-58l-300 -622h-106l287 591h-349v89h468z" />
    <glyph glyph-name="eight.osf" horiz-adv-x="624" 
d="M449 359c78 -31 123 -92 123 -170c0 -120 -101 -204 -261 -204c-158 0 -259 84 -259 204c0 79 46 139 123 170c-58 29 -94 80 -94 148c0 109 96 188 231 188s231 -79 231 -188c0 -68 -35 -119 -94 -148zM312 620c-81 0 -138 -52 -138 -118c0 -69 57 -117 138 -117
s139 48 139 117c0 65 -58 118 -139 118zM312 64c92 0 156 57 156 131c0 72 -64 125 -156 125c-93 0 -156 -53 -156 -125c0 -75 63 -131 156 -131z" />
    <glyph glyph-name="nine.osf" horiz-adv-x="616" 
d="M308 552c150 0 256 -103 256 -237c0 -58 -22 -107 -58 -162l-201 -296h-112l151 224c-12 -1 -24 -2 -37 -2c-148 0 -255 98 -255 233c0 138 107 240 256 240zM425 202l3 4c30 40 43 73 43 113c0 87 -68 156 -163 156s-163 -69 -163 -158c0 -87 68 -155 163 -155
c47 0 88 15 117 40z" />
    <glyph glyph-name="zero.tf" horiz-adv-x="619" 
d="M307 695c182 0 285 -148 285 -355s-103 -355 -285 -355c-181 0 -284 148 -284 355s103 355 284 355zM307 71c125 0 188 114 188 269s-63 269 -188 269s-188 -114 -188 -269s63 -269 188 -269z" />
    <glyph glyph-name="one.tf" horiz-adv-x="619" 
d="M567 79v-79h-495v79h211v497l-176 -58v82l217 80h54v-601h189z" />
    <glyph glyph-name="two.tf" horiz-adv-x="619" 
d="M540 79v-79h-452v50l215 240c78 85 131 137 131 203c0 63 -45 120 -132 120c-78 0 -131 -49 -140 -126h-94c5 124 92 208 230 208c146 0 231 -92 231 -203c0 -79 -50 -138 -146 -242l-154 -171h311z" />
    <glyph glyph-name="three.tf" horiz-adv-x="619" 
d="M447 344c67 -30 105 -85 105 -159c0 -115 -93 -199 -233 -199c-146 0 -228 75 -243 188h92c14 -64 60 -106 151 -106c86 0 144 48 144 117c0 71 -59 117 -148 117h-54v77h54c76 0 126 47 126 115c0 71 -50 117 -127 117c-70 0 -121 -42 -129 -105h-93
c10 112 97 186 221 186c132 0 217 -81 217 -197c0 -67 -30 -120 -83 -151z" />
    <glyph glyph-name="four.tf" horiz-adv-x="619" 
d="M579 144h-102v-144h-91v144h-360v59l202 477h97l-187 -454h248v211h91v-211h102v-82z" />
    <glyph glyph-name="five.tf" horiz-adv-x="619" 
d="M183 426h119c141 0 234 -88 234 -212c0 -130 -98 -229 -242 -229c-145 0 -233 78 -254 198h93c18 -71 70 -116 161 -116c90 0 153 63 153 144c0 78 -60 133 -156 133l-196 -1l1 337h408v-85h-321v-169z" />
    <glyph glyph-name="six.tf" horiz-adv-x="619" 
d="M317 459c148 0 255 -99 255 -234c0 -138 -107 -240 -256 -240c-150 0 -256 103 -256 237c0 58 22 107 58 163l201 295h112l-150 -223c11 1 23 2 36 2zM316 62c95 0 163 69 163 158c0 87 -68 155 -163 155c-47 0 -88 -14 -117 -40l-3 -4c-30 -40 -43 -73 -43 -113
c0 -87 68 -156 163 -156z" />
    <glyph glyph-name="seven.tf" horiz-adv-x="619" 
d="M550 680v-58l-300 -622h-106l286 591h-349v89h469z" />
    <glyph glyph-name="eight.tf" horiz-adv-x="619" 
d="M452 359c78 -31 123 -92 123 -170c0 -120 -101 -204 -261 -204c-158 0 -259 84 -259 204c0 78 45 139 123 170c-59 29 -95 80 -95 148c0 109 97 188 231 188c136 0 232 -79 232 -188c0 -68 -35 -119 -94 -148zM314 620c-81 0 -138 -52 -138 -118c0 -69 57 -117 138 -117
s139 48 139 117c0 65 -58 118 -139 118zM314 64c93 0 157 57 157 131c0 72 -64 125 -157 125c-92 0 -155 -53 -155 -125c0 -75 63 -131 155 -131z" />
    <glyph glyph-name="nine.tf" horiz-adv-x="593" 
d="M294 695c150 0 256 -103 256 -237c0 -58 -22 -107 -58 -162l-201 -296h-112l151 224c-12 -1 -24 -2 -37 -2c-148 0 -255 98 -255 233c0 138 107 240 256 240zM411 345l3 4c30 40 43 73 43 113c0 87 -68 156 -163 156s-163 -69 -163 -158c0 -87 68 -155 163 -155
c47 0 88 15 117 40z" />
    <glyph glyph-name="zero.zero" horiz-adv-x="718" 
d="M359 695c189 0 298 -148 298 -355s-109 -355 -298 -355c-188 0 -298 148 -298 355s110 355 298 355zM359 609c-132 0 -202 -114 -202 -269c0 -64 12 -120 35 -165l272 403c-29 20 -64 31 -105 31zM359 71c132 0 202 114 202 269c0 65 -12 124 -37 169l-273 -405
c29 -21 65 -33 108 -33z" />
    <glyph glyph-name="zero.osf.zero" horiz-adv-x="660" 
d="M334 552c161 0 277 -111 277 -282c0 -170 -116 -282 -277 -282c-160 0 -278 112 -278 282c0 171 118 282 278 282zM334 468c-105 0 -186 -78 -186 -198c0 -41 10 -78 27 -108l265 274c-30 21 -66 32 -106 32zM334 72c105 0 186 78 186 198c0 43 -10 81 -29 111l-266 -275
c30 -22 68 -34 109 -34z" />
    <glyph glyph-name="fraction" unicode="&#x2044;" horiz-adv-x="465" 
d="M37 0h-67l458 680h67z" />
    <glyph glyph-name="onehalf" unicode="&#xbd;" horiz-adv-x="888" 
d="M716 680l-458 -680h-67l458 680h67zM30 290v59h110v255l-105 -30v61l134 42h38v-328h104v-59h-281zM851 59v-59h-281v37l139 144c43 43 65 67 65 99c0 34 -26 57 -66 57c-43 0 -69 -24 -71 -63h-70c3 75 52 126 139 126c90 0 138 -54 138 -116c0 -42 -21 -78 -76 -135
l-86 -90h169z" />
    <glyph glyph-name="onequarter" unicode="&#xbc;" horiz-adv-x="895" 
d="M712 680l-457 -680h-68l458 680h67zM30 290v59h110v255l-105 -30v61l134 42h38v-328h104v-59h-281zM858 79h-57v-79h-69v79h-214v44l119 268h73l-107 -251h129v115h69v-115h57v-61z" />
    <glyph glyph-name="threequarters" unicode="&#xbe;" horiz-adv-x="882" 
d="M334 403c0 -67 -57 -118 -144 -118c-85 0 -139 46 -150 115h70c8 -31 34 -53 81 -53c45 0 76 24 76 56c0 37 -30 57 -81 57h-33v57h33c40 0 67 24 67 57s-24 56 -67 56c-39 0 -62 -22 -65 -52h-70c6 70 57 114 135 114c83 0 134 -49 134 -117c0 -36 -15 -65 -43 -84
c36 -17 57 -48 57 -88zM700 680l-458 -680h-67l458 680h67zM845 79h-57v-79h-69v79h-214v44l119 268h73l-107 -251h129v115h69v-115h57v-61z" />
    <glyph glyph-name="oneeighth" unicode="&#x215b;" horiz-adv-x="923" 
d="M716 680l-458 -680h-67l458 680h67zM30 290v59h110v255l-105 -30v61l134 42h38v-328h104v-59h-281zM814 206c42 -19 66 -53 66 -96c0 -69 -60 -119 -157 -119s-157 50 -157 119c0 43 24 77 66 96c-31 18 -50 46 -50 83c0 65 58 111 141 111c82 0 141 -46 141 -111
c0 -37 -18 -65 -50 -83zM723 344c-40 0 -71 -25 -71 -59c0 -37 31 -60 71 -60s70 23 70 60c0 34 -30 59 -70 59zM723 51c47 0 78 26 78 63s-31 62 -78 62s-79 -25 -79 -62s32 -63 79 -63z" />
    <glyph glyph-name="threeeighths" unicode="&#x215c;" horiz-adv-x="907" 
d="M334 403c0 -67 -57 -118 -144 -118c-85 0 -139 46 -150 115h70c8 -31 34 -53 81 -53c45 0 76 24 76 56c0 37 -30 57 -81 57h-33v57h33c40 0 67 24 67 57s-24 56 -67 56c-39 0 -62 -22 -65 -52h-70c6 70 57 114 135 114c83 0 134 -49 134 -117c0 -36 -15 -65 -43 -84
c36 -17 57 -48 57 -88zM700 680l-458 -680h-67l458 680h67zM798 206c42 -19 66 -53 66 -96c0 -69 -60 -119 -157 -119s-157 50 -157 119c0 43 24 77 66 96c-31 18 -50 46 -50 83c0 65 58 111 141 111c82 0 141 -46 141 -111c0 -37 -18 -65 -50 -83zM707 344
c-40 0 -71 -25 -71 -59c0 -37 31 -60 71 -60s70 23 70 60c0 34 -30 59 -70 59zM707 51c47 0 78 26 78 63s-31 62 -78 62s-79 -25 -79 -62s32 -63 79 -63z" />
    <glyph glyph-name="fiveeighths" unicode="&#x215d;" horiz-adv-x="910" 
d="M336 414c0 -75 -59 -133 -148 -133c-87 0 -141 46 -153 116h70c10 -33 36 -54 83 -54c49 0 81 31 81 70s-27 66 -77 66h-125v202h251v-64h-186v-77h61c92 0 143 -52 143 -126zM703 680l-457 -680h-67l457 680h67zM801 206c42 -19 66 -53 66 -96c0 -69 -60 -119 -157 -119
s-157 50 -157 119c0 43 24 77 66 97c-31 17 -49 45 -49 82c0 65 58 111 140 111s141 -46 141 -111c0 -37 -18 -65 -50 -83zM710 344c-40 0 -71 -25 -71 -59c0 -37 31 -60 71 -60s71 23 71 60c0 34 -31 59 -71 59zM710 51c47 0 79 26 79 63s-32 62 -79 62s-78 -25 -78 -62
s31 -63 78 -63z" />
    <glyph glyph-name="seveneighths" unicode="&#x215e;" horiz-adv-x="824" 
d="M67 290l161 324h-195v67h286v-43l-173 -348h-79zM616 680l-457 -680h-67l457 680h67zM715 206c42 -19 65 -53 65 -96c0 -69 -59 -119 -157 -119c-96 0 -157 50 -157 119c0 43 24 77 66 96c-31 18 -49 46 -49 83c0 65 58 111 140 111c83 0 141 -46 141 -111
c0 -37 -18 -65 -49 -83zM623 344c-40 0 -70 -25 -70 -59c0 -37 30 -60 70 -60s71 23 71 60c0 34 -31 59 -71 59zM623 51c48 0 79 26 79 63s-31 62 -79 62c-47 0 -78 -25 -78 -62s31 -63 78 -63z" />
    <glyph glyph-name="zero.dnom" horiz-adv-x="441" 
d="M221 400c116 0 183 -89 183 -205c0 -115 -67 -204 -183 -204s-184 89 -184 204c0 116 68 205 184 205zM221 56c74 0 111 63 111 139c0 77 -37 140 -111 140s-112 -63 -112 -140c0 -76 38 -139 112 -139z" />
    <glyph glyph-name="one.dnom" horiz-adv-x="321" 
d="M311 59v-59h-281v59h110v255l-105 -30v61l134 42h38v-328h104z" />
    <glyph glyph-name="two.dnom" horiz-adv-x="363" 
d="M326 59v-59h-281v37l139 144c43 43 65 67 65 99c0 34 -26 57 -66 57c-43 0 -69 -24 -71 -63h-70c3 75 52 126 139 126c90 0 138 -54 138 -116c0 -42 -21 -78 -76 -135l-86 -90h169z" />
    <glyph glyph-name="three.dnom" horiz-adv-x="375" 
d="M276 197c36 -17 57 -48 57 -88c0 -67 -57 -118 -144 -118c-85 0 -139 46 -150 115h70c8 -31 34 -53 81 -53c45 0 76 24 76 56c0 37 -30 57 -81 57h-33v57h33c40 0 67 24 67 57s-24 56 -67 56c-39 0 -62 -22 -65 -52h-70c6 70 57 114 135 114c83 0 134 -49 134 -117
c0 -36 -15 -65 -43 -84z" />
    <glyph glyph-name="four.dnom" horiz-adv-x="407" 
d="M370 79h-57v-79h-69v79h-214v44l119 268h73l-107 -251h129v115h69v-115h57v-61z" />
    <glyph glyph-name="five.dnom" horiz-adv-x="384" 
d="M132 250h61c92 0 143 -52 143 -126c0 -75 -59 -133 -148 -133c-87 0 -141 46 -153 116h70c10 -33 36 -54 83 -54c49 0 81 31 81 70s-27 66 -77 66h-125v202h251v-64h-186v-77z" />
    <glyph glyph-name="six.dnom" horiz-adv-x="379" 
d="M183 267h7c91 0 153 -58 153 -136c0 -79 -62 -140 -154 -140c-91 0 -155 62 -155 138c0 34 13 62 37 98l112 164h83zM189 49c49 0 85 32 85 78s-36 78 -85 78c-26 0 -46 -7 -62 -21l-2 -3c-12 -14 -22 -34 -22 -53c0 -45 36 -79 86 -79z" />
    <glyph glyph-name="seven.dnom" horiz-adv-x="324" 
d="M306 391v-43l-173 -348h-79l161 324h-195v67h286z" />
    <glyph glyph-name="eight.dnom" horiz-adv-x="401" 
d="M292 206c42 -19 65 -53 65 -96c0 -69 -59 -119 -157 -119c-96 0 -156 50 -156 119c0 43 24 77 66 96c-32 18 -50 46 -50 83c0 65 58 111 140 111c83 0 141 -46 141 -111c0 -37 -18 -65 -49 -83zM200 344c-40 0 -70 -25 -70 -59c0 -37 30 -60 70 -60c41 0 71 23 71 60
c0 34 -30 59 -71 59zM200 51c48 0 79 26 79 63s-31 62 -79 62c-47 0 -78 -25 -78 -62s31 -63 78 -63z" />
    <glyph glyph-name="nine.dnom" horiz-adv-x="379" 
d="M190 401c91 0 155 -62 155 -138c0 -34 -13 -62 -37 -97l-112 -165h-83l83 124h-7c-91 0 -153 58 -153 136c0 79 62 140 154 140zM252 208l2 3c12 14 22 34 22 53c0 45 -36 79 -86 79c-48 0 -85 -32 -85 -78s37 -78 85 -78c26 0 46 7 62 21z" />
    <glyph glyph-name="zero.numr" horiz-adv-x="441" 
d="M221 690c116 0 183 -89 183 -205c0 -115 -67 -204 -183 -204s-184 89 -184 204c0 116 68 205 184 205zM221 346c74 0 111 63 111 139c0 77 -37 140 -111 140s-112 -63 -112 -140c0 -76 38 -139 112 -139z" />
    <glyph glyph-name="one.numr" horiz-adv-x="321" 
d="M311 349v-59h-281v59h110v255l-105 -30v61l134 42h38v-328h104z" />
    <glyph glyph-name="two.numr" horiz-adv-x="363" 
d="M326 349v-59h-281v37l139 144c43 43 65 67 65 99c0 34 -26 57 -66 57c-43 0 -69 -24 -71 -63h-70c3 75 52 126 139 126c90 0 138 -54 138 -116c0 -42 -21 -78 -76 -135l-86 -90h169z" />
    <glyph glyph-name="three.numr" horiz-adv-x="375" 
d="M276 491c36 -17 57 -48 57 -88c0 -67 -57 -118 -144 -118c-85 0 -139 46 -150 115h70c8 -31 34 -53 81 -53c45 0 76 24 76 56c0 37 -30 57 -81 57h-33v57h33c40 0 67 24 67 57s-24 56 -67 56c-39 0 -62 -22 -65 -52h-70c6 70 57 114 135 114c83 0 134 -49 134 -117
c0 -36 -15 -65 -43 -84z" />
    <glyph glyph-name="four.numr" horiz-adv-x="407" 
d="M370 369h-57v-79h-69v79h-214v44l119 268h73l-107 -251h129v115h69v-115h57v-61z" />
    <glyph glyph-name="five.numr" horiz-adv-x="384" 
d="M132 540h61c92 0 143 -52 143 -126c0 -75 -59 -133 -148 -133c-87 0 -141 46 -153 116h70c10 -33 36 -54 83 -54c49 0 81 31 81 70s-27 66 -77 66h-125v202h251v-64h-186v-77z" />
    <glyph glyph-name="six.numr" horiz-adv-x="379" 
d="M183 557h7c91 0 153 -58 153 -136c0 -79 -62 -140 -154 -140c-91 0 -155 62 -155 138c0 34 13 62 37 98l112 164h83zM189 339c49 0 85 32 85 78s-36 78 -85 78c-26 0 -46 -7 -62 -21l-2 -3c-12 -14 -22 -34 -22 -53c0 -45 36 -79 86 -79z" />
    <glyph glyph-name="seven.numr" horiz-adv-x="324" 
d="M306 681v-43l-173 -348h-79l161 324h-195v67h286z" />
    <glyph glyph-name="eight.numr" horiz-adv-x="401" 
d="M292 500c42 -19 65 -53 65 -96c0 -69 -59 -119 -157 -119c-96 0 -156 50 -156 119c0 43 24 77 66 96c-32 18 -50 46 -50 83c0 65 58 111 140 111c83 0 141 -46 141 -111c0 -37 -18 -65 -49 -83zM200 638c-40 0 -70 -25 -70 -59c0 -37 30 -60 70 -60c41 0 71 23 71 60
c0 34 -30 59 -71 59zM200 345c48 0 79 26 79 63s-31 62 -79 62c-47 0 -78 -25 -78 -62s31 -63 78 -63z" />
    <glyph glyph-name="nine.numr" horiz-adv-x="379" 
d="M190 695c91 0 155 -62 155 -138c0 -34 -13 -62 -37 -97l-112 -165h-83l83 124h-7c-91 0 -153 58 -153 136c0 79 62 140 154 140zM252 502l2 3c12 14 22 34 22 53c0 45 -36 79 -86 79c-48 0 -85 -32 -85 -78s37 -78 85 -78c26 0 46 7 62 21z" />
    <glyph glyph-name="zeroinferior" unicode="&#x2080;" horiz-adv-x="441" 
d="M225 220c116 0 183 -89 183 -205c0 -115 -67 -204 -183 -204s-184 89 -184 204c0 116 68 205 184 205zM225 -124c74 0 111 63 111 139c0 77 -37 140 -111 140s-112 -63 -112 -140c0 -76 38 -139 112 -139z" />
    <glyph glyph-name="oneinferior" unicode="&#x2081;" horiz-adv-x="321" 
d="M311 -121v-59h-281v59h110v255l-105 -30v61l134 42h38v-328h104z" />
    <glyph glyph-name="twoinferior" unicode="&#x2082;" horiz-adv-x="363" 
d="M326 -121v-59h-281v37l139 144c43 43 65 67 65 99c0 34 -26 57 -66 57c-43 0 -69 -24 -71 -63h-70c3 75 52 126 139 126c90 0 138 -54 138 -116c0 -42 -21 -78 -76 -135l-86 -90h169z" />
    <glyph glyph-name="threeinferior" unicode="&#x2083;" horiz-adv-x="375" 
d="M276 17c36 -17 57 -48 57 -88c0 -67 -57 -118 -144 -118c-85 0 -139 46 -150 114h70c8 -30 34 -52 81 -52c45 0 76 23 76 56c0 36 -30 57 -81 57h-33v57h33c40 0 67 24 67 57s-24 56 -67 56c-39 0 -62 -22 -65 -52h-70c6 70 57 114 135 114c83 0 134 -49 134 -117
c0 -36 -15 -65 -43 -84z" />
    <glyph glyph-name="fourinferior" unicode="&#x2084;" horiz-adv-x="407" 
d="M377 -102h-57v-78h-69v78h-214v45l119 268h73l-107 -251h129v115h69v-115h57v-62z" />
    <glyph glyph-name="fiveinferior" unicode="&#x2085;" horiz-adv-x="384" 
d="M132 70h61c92 0 143 -52 143 -126c0 -75 -59 -133 -148 -133c-87 0 -141 46 -153 116h70c10 -33 36 -54 83 -54c49 0 81 31 81 69c0 40 -27 67 -77 67h-125v202h251v-64h-186v-77z" />
    <glyph glyph-name="sixinferior" unicode="&#x2086;" horiz-adv-x="379" 
d="M183 87h7c91 0 153 -58 153 -136c0 -79 -62 -140 -154 -140c-91 0 -155 62 -155 138c0 34 13 62 37 98l112 164h83zM189 -131c49 0 85 32 85 78s-36 78 -85 78c-26 0 -46 -7 -62 -21l-2 -3c-12 -14 -22 -34 -22 -53c0 -45 36 -79 86 -79z" />
    <glyph glyph-name="seveninferior" unicode="&#x2087;" horiz-adv-x="324" 
d="M306 211v-43l-173 -348h-79l161 324h-195v67h286z" />
    <glyph glyph-name="eightinferior" unicode="&#x2088;" horiz-adv-x="401" 
d="M292 26c42 -19 65 -53 65 -96c0 -69 -59 -119 -157 -119c-96 0 -156 50 -156 119c0 43 24 77 66 96c-32 18 -50 46 -50 83c0 65 58 111 140 111c83 0 141 -46 141 -111c0 -37 -18 -65 -49 -83zM200 164c-40 0 -70 -25 -70 -59c0 -37 30 -60 70 -60c41 0 71 23 71 60
c0 34 -30 59 -71 59zM200 -129c48 0 79 26 79 63s-31 62 -79 62c-47 0 -78 -25 -78 -62s31 -63 78 -63z" />
    <glyph glyph-name="nineinferior" unicode="&#x2089;" horiz-adv-x="379" 
d="M190 221c91 0 155 -62 155 -138c0 -34 -13 -62 -37 -97l-112 -165h-83l83 124h-7c-91 0 -153 58 -153 136c0 79 62 140 154 140zM252 28l2 3c12 14 22 34 22 53c0 45 -36 79 -86 79c-48 0 -85 -32 -85 -78s37 -78 85 -78c26 0 46 7 62 21z" />
    <glyph glyph-name="zerosuperior" unicode="&#x2070;" horiz-adv-x="441" 
d="M221 697c116 0 183 -89 183 -205c0 -115 -67 -204 -183 -204s-184 89 -184 204c0 116 68 205 184 205zM221 353c74 0 111 63 111 139c0 77 -37 140 -111 140s-112 -63 -112 -140c0 -76 38 -139 112 -139z" />
    <glyph glyph-name="onesuperior" unicode="&#xb9;" horiz-adv-x="321" 
d="M311 359v-59h-281v59h110v255l-105 -30v61l134 42h38v-328h104z" />
    <glyph glyph-name="twosuperior" unicode="&#xb2;" horiz-adv-x="363" 
d="M326 356v-59h-281v37l139 144c43 43 65 67 65 99c0 34 -26 57 -66 57c-43 0 -69 -24 -71 -63h-70c3 75 52 126 139 126c90 0 138 -54 138 -116c0 -42 -21 -78 -76 -135l-86 -90h169z" />
    <glyph glyph-name="threesuperior" unicode="&#xb3;" horiz-adv-x="375" 
d="M276 497c36 -17 57 -48 57 -88c0 -67 -57 -118 -144 -118c-85 0 -139 46 -150 115h70c8 -31 34 -53 81 -53c45 0 76 24 76 56c0 37 -30 57 -81 57h-33v57h33c40 0 67 24 67 57s-24 56 -67 56c-39 0 -62 -22 -65 -52h-70c6 70 57 114 135 114c83 0 134 -49 134 -117
c0 -36 -15 -65 -43 -84z" />
    <glyph glyph-name="foursuperior" unicode="&#x2074;" horiz-adv-x="407" 
d="M377 379h-57v-79h-69v79h-214v44l119 268h73l-107 -251h129v115h69v-115h57v-61z" />
    <glyph glyph-name="fivesuperior" unicode="&#x2075;" horiz-adv-x="384" 
d="M132 550h61c92 0 143 -52 143 -126c0 -75 -59 -133 -148 -133c-87 0 -141 46 -153 116h70c10 -33 36 -54 83 -54c49 0 81 31 81 70s-27 66 -77 66h-125v202h251v-64h-186v-77z" />
    <glyph glyph-name="sixsuperior" unicode="&#x2076;" horiz-adv-x="379" 
d="M183 567h7c91 0 153 -58 153 -136c0 -79 -62 -140 -154 -140c-91 0 -155 62 -155 138c0 34 13 62 37 98l112 164h83zM189 349c49 0 85 32 85 78s-36 78 -85 78c-26 0 -46 -7 -62 -21l-2 -3c-12 -14 -22 -34 -22 -53c0 -45 36 -79 86 -79z" />
    <glyph glyph-name="sevensuperior" unicode="&#x2077;" horiz-adv-x="324" 
d="M306 691v-43l-173 -348h-79l161 324h-195v67h286z" />
    <glyph glyph-name="eightsuperior" unicode="&#x2078;" horiz-adv-x="401" 
d="M292 503c42 -19 65 -53 65 -96c0 -69 -59 -119 -157 -119c-96 0 -156 50 -156 119c0 43 24 77 66 96c-32 18 -50 46 -50 83c0 65 58 111 140 111c83 0 141 -46 141 -111c0 -37 -18 -65 -49 -83zM200 641c-40 0 -70 -25 -70 -59c0 -37 30 -60 70 -60c41 0 71 23 71 60
c0 34 -30 59 -71 59zM200 348c48 0 79 26 79 63s-31 62 -79 62c-47 0 -78 -25 -78 -62s31 -63 78 -63z" />
    <glyph glyph-name="ninesuperior" unicode="&#x2079;" horiz-adv-x="379" 
d="M190 701c91 0 155 -62 155 -138c0 -34 -13 -62 -37 -97l-112 -165h-83l83 124h-7c-91 0 -153 58 -153 136c0 79 62 140 154 140zM252 508l2 3c12 14 22 34 22 53c0 45 -36 79 -86 79c-48 0 -85 -32 -85 -78s37 -78 85 -78c26 0 46 7 62 21z" />
    <glyph glyph-name="asterisk" unicode="*" horiz-adv-x="404" 
d="M357 467l-26 -45l-102 60v-108h-54v108l-101 -60l-27 45l103 63l-103 62l27 47l101 -61v107h54v-107l102 61l26 -47l-103 -62z" />
    <glyph glyph-name="backslash" unicode="\" horiz-adv-x="404" 
d="M116 730l260 -890h-88l-260 890h88z" />
    <glyph glyph-name="bullet" unicode="&#x2022;" horiz-adv-x="324" 
d="M162 175c-66 0 -123 57 -123 122c0 66 57 122 123 122s123 -56 123 -122c0 -65 -57 -122 -123 -122z" />
    <glyph glyph-name="colon" unicode=":" horiz-adv-x="193" 
d="M96 366c-32 0 -59 25 -59 58c0 32 27 57 59 57c33 0 60 -25 60 -57c0 -33 -27 -58 -60 -58zM96 -15c-32 0 -59 25 -59 58c0 32 27 57 59 57c33 0 60 -25 60 -57c0 -33 -27 -58 -60 -58z" />
    <glyph glyph-name="comma" unicode="," horiz-adv-x="204" 
d="M37 -127l49 121c-25 9 -37 27 -37 49c0 31 26 56 59 56s59 -25 59 -56c0 -14 -1 -21 -19 -56l-54 -114h-57z" />
    <glyph glyph-name="ellipsis" unicode="&#x2026;" horiz-adv-x="616" 
d="M96 -15c-32 0 -59 25 -59 58c0 32 27 57 59 57c33 0 60 -25 60 -57c0 -33 -27 -58 -60 -58zM305 -15c-33 0 -59 25 -59 58c0 32 26 57 59 57s59 -25 59 -57c0 -33 -26 -58 -59 -58zM519 -15c-32 0 -59 25 -59 58c0 32 27 57 59 57c33 0 60 -25 60 -57
c0 -33 -27 -58 -60 -58z" />
    <glyph glyph-name="exclam" unicode="!" horiz-adv-x="271" 
d="M176 197h-82l-7 483h97zM135 -9c-32 0 -59 25 -59 58c0 32 27 57 59 57c33 0 60 -25 60 -57c0 -33 -27 -58 -60 -58z" />
    <glyph glyph-name="exclamdown" unicode="&#xa1;" horiz-adv-x="271" 
d="M135 480c33 0 60 -25 60 -58c0 -32 -27 -57 -60 -57c-32 0 -59 25 -59 57c0 33 27 58 59 58zM87 -209l7 483h82l8 -483h-97z" />
    <glyph glyph-name="numbersign" unicode="#" horiz-adv-x="749" 
d="M536 268h120v-82h-146l-58 -186h-95l58 186h-180l-58 -186h-95l58 186h-103v82h129l42 134h-116v82h141l62 197h95l-62 -197h180l62 197h95l-62 -197h108v-82h-133zM303 402l-42 -134h180l42 134h-180z" />
    <glyph glyph-name="period" unicode="." horiz-adv-x="193" 
d="M96 -15c-32 0 -59 25 -59 58c0 32 27 57 59 57c33 0 60 -25 60 -57c0 -33 -27 -58 -60 -58z" />
    <glyph glyph-name="periodcentered" unicode="&#xb7;" horiz-adv-x="193" 
d="M96 209c-32 0 -59 24 -59 57s27 57 59 57c33 0 60 -24 60 -57s-27 -57 -60 -57z" />
    <glyph glyph-name="question" unicode="?" horiz-adv-x="551" 
d="M207 198l-8 150h55c81 0 142 55 142 132c0 75 -55 131 -134 131c-65 0 -119 -41 -130 -103h-92c13 111 95 184 218 184c130 0 228 -88 228 -212c0 -111 -80 -188 -203 -197l-4 -85h-72zM241 -9c-32 0 -59 25 -59 58c0 32 27 57 59 57c33 0 60 -25 60 -57
c0 -33 -27 -58 -60 -58z" />
    <glyph glyph-name="questiondown" unicode="&#xbf;" horiz-adv-x="551" 
d="M309 550c33 0 59 -25 59 -58c0 -32 -26 -57 -59 -57c-32 0 -59 25 -59 57c0 33 27 58 59 58zM344 343l7 -150h-54c-82 0 -142 -54 -142 -132c0 -75 54 -131 134 -131c65 0 119 41 129 103h93c-13 -111 -95 -184 -218 -184c-131 0 -228 88 -228 212c0 111 79 188 203 197
l3 85h73z" />
    <glyph glyph-name="quotedbl" unicode="&#x22;" horiz-adv-x="324" 
d="M126 680v-272h-78v272h78zM277 680v-272h-79v272h79z" />
    <glyph glyph-name="quotesingle" unicode="'" horiz-adv-x="174" 
d="M126 680v-272h-78v272h78z" />
    <glyph glyph-name="semicolon" unicode=";" horiz-adv-x="197" 
d="M98 366c-32 0 -59 25 -59 58c0 32 27 57 59 57c33 0 60 -25 60 -57c0 -33 -27 -58 -60 -58zM28 -127l49 121c-24 9 -36 27 -36 49c0 31 26 56 58 56c33 0 59 -25 59 -56c0 -14 -1 -21 -19 -56l-54 -114h-57z" />
    <glyph glyph-name="slash" unicode="/" horiz-adv-x="404" 
d="M136 -160h-89l260 890h89z" />
    <glyph glyph-name="underscore" unicode="_" horiz-adv-x="642" 
d="M37 -114h568v-81h-568v81z" />
    <glyph glyph-name="backslash.case" horiz-adv-x="372" 
d="M24 730h96l227 -777h-95z" />
    <glyph glyph-name="bullet.case" horiz-adv-x="324" 
d="M162 210c-66 0 -123 57 -123 122c0 66 57 122 123 122s123 -56 123 -122c0 -65 -57 -122 -123 -122z" />
    <glyph glyph-name="exclamdown.case" horiz-adv-x="271" 
d="M135 689c33 0 60 -25 60 -58c0 -32 -27 -57 -60 -57c-32 0 -59 25 -59 57c0 33 27 58 59 58zM87 0l7 483h82l8 -483h-97z" />
    <glyph glyph-name="periodcentered.case" horiz-adv-x="193" 
d="M96 275c-32 0 -59 24 -59 57s27 57 59 57c33 0 60 -24 60 -57s-27 -57 -60 -57z" />
    <glyph glyph-name="questiondown.case" horiz-adv-x="551" 
d="M309 689c33 0 59 -25 59 -58c0 -32 -26 -57 -59 -57c-32 0 -59 25 -59 57c0 33 27 58 59 58zM344 482l7 -150h-54c-82 0 -142 -54 -142 -132c0 -75 54 -131 134 -131c65 0 119 41 129 103h93c-13 -111 -95 -184 -218 -184c-131 0 -228 88 -228 212c0 111 79 188 203 197
l3 85h73z" />
    <glyph glyph-name="slash.case" horiz-adv-x="372" 
d="M44 -47l227 777h96l-228 -777h-95z" />
    <glyph glyph-name="braceleft" unicode="{" horiz-adv-x="355" 
d="M221 566v-135c0 -71 -15 -108 -74 -127c59 -19 74 -56 74 -126v-135c0 -54 37 -90 93 -90v-89c-111 0 -185 71 -185 179v132c0 73 -26 89 -94 89v81c68 0 94 16 94 88v133c0 107 74 179 185 179v-89c-56 0 -93 -37 -93 -90z" />
    <glyph glyph-name="braceright" unicode="}" horiz-adv-x="364" 
d="M144 431v135c0 53 -37 90 -94 90v89c111 0 186 -72 186 -179v-133c0 -72 26 -88 93 -88v-81c-67 0 -93 -16 -93 -89v-132c0 -108 -75 -179 -186 -179v89c57 0 94 36 94 90v135c0 70 14 107 73 126c-59 19 -73 56 -73 127z" />
    <glyph glyph-name="bracketleft" unicode="[" horiz-adv-x="349" 
d="M167 -41h141v-88h-233v859h233v-88h-141v-683z" />
    <glyph glyph-name="bracketright" unicode="]" horiz-adv-x="349" 
d="M32 642v88h233v-859h-233v88h141v683h-141z" />
    <glyph glyph-name="parenleft" unicode="(" horiz-adv-x="354" 
d="M155 303c0 -163 62 -268 169 -370l-59 -60c-134 111 -204 257 -204 430c0 172 70 318 204 430l59 -60c-107 -103 -169 -208 -169 -370z" />
    <glyph glyph-name="parenright" unicode=")" horiz-adv-x="354" 
d="M31 673l59 60c133 -112 204 -258 204 -430c0 -173 -71 -319 -204 -430l-59 60c107 102 169 207 169 370c0 162 -62 267 -169 370z" />
    <glyph glyph-name="braceleft.case" horiz-adv-x="355" 
d="M221 566v-96c0 -70 -15 -107 -74 -126c59 -19 74 -56 74 -126v-95c0 -54 37 -91 93 -91v-89c-111 0 -185 72 -185 180v92c0 73 -26 88 -94 88v82c68 0 94 15 94 88v93c0 107 74 179 185 179v-89c-56 0 -93 -37 -93 -90z" />
    <glyph glyph-name="braceright.case" horiz-adv-x="364" 
d="M144 470v96c0 53 -37 90 -94 90v89c111 0 186 -72 186 -179v-93c0 -73 26 -88 93 -88v-82c-67 0 -93 -15 -93 -88v-92c0 -108 -75 -180 -186 -180v89c57 0 94 37 94 91v95c0 70 14 107 73 126c-59 19 -73 56 -73 126z" />
    <glyph glyph-name="bracketleft.case" horiz-adv-x="360" 
d="M178 41h141v-88h-233v777h233v-88h-141v-601z" />
    <glyph glyph-name="bracketright.case" horiz-adv-x="351" 
d="M32 642v88h233v-777h-233v88h141v601h-141z" />
    <glyph glyph-name="parenleft.case" horiz-adv-x="344" 
d="M157 342c0 -149 49 -224 156 -327l-59 -60c-130 112 -193 221 -193 387s63 279 193 391l59 -60c-107 -103 -156 -181 -156 -331z" />
    <glyph glyph-name="parenright.case" horiz-adv-x="344" 
d="M31 673l59 60c130 -112 193 -225 193 -391s-63 -275 -193 -387l-59 60c107 103 156 178 156 327c0 150 -49 228 -156 331z" />
    <glyph glyph-name="emdash" unicode="&#x2014;" horiz-adv-x="987" 
d="M894 222v92h-801v-92h801z" />
    <glyph glyph-name="endash" unicode="&#x2013;" horiz-adv-x="718" 
d="M608 222v92h-497v-92h497z" />
    <glyph glyph-name="hyphen" unicode="-" horiz-adv-x="558" 
d="M447 221v92h-336v-92h336z" />
    <glyph glyph-name="emdash.case" horiz-adv-x="987" 
d="M894 289v91h-801v-91h801z" />
    <glyph glyph-name="endash.case" horiz-adv-x="718" 
d="M608 288v92h-497v-92h497z" />
    <glyph glyph-name="hyphen.case" horiz-adv-x="558" 
d="M447 288v91h-336v-91h336z" />
    <glyph glyph-name="guillemotleft" unicode="&#xab;" horiz-adv-x="440" 
d="M230 402l-103 -150l103 -150h-90l-103 150l103 150h90zM402 402l-102 -150l102 -150h-90l-102 150l102 150h90z" />
    <glyph glyph-name="guillemotright" unicode="&#xbb;" horiz-adv-x="440" 
d="M230 252l-103 -150h-89l102 150l-102 150h89zM402 252l-102 -150h-90l102 150l-102 150h90z" />
    <glyph glyph-name="guilsinglleft" unicode="&#x2039;" horiz-adv-x="268" 
d="M230 402l-103 -150l103 -150h-90l-102 150l102 150h90z" />
    <glyph glyph-name="guilsinglright" unicode="&#x203a;" horiz-adv-x="268" 
d="M230 252l-103 -150h-89l102 150l-102 150h89z" />
    <glyph glyph-name="quotedblbase" unicode="&#x201e;" horiz-adv-x="378" 
d="M37 -127l49 121c-25 9 -37 27 -37 49c0 31 26 56 58 56c33 0 59 -25 59 -56c0 -14 0 -21 -18 -56l-54 -114h-57zM212 -127l48 121c-24 9 -36 27 -36 49c0 31 26 56 58 56c33 0 59 -25 59 -56c0 -14 -1 -21 -19 -56l-54 -114h-56z" />
    <glyph glyph-name="quotedblleft" unicode="&#x201c;" horiz-adv-x="376" 
d="M167 679l-49 -121c24 -9 37 -26 37 -48c0 -31 -27 -56 -59 -56c-33 0 -59 25 -59 56c0 14 1 21 19 55l54 114h57zM339 679l-49 -121c25 -9 37 -26 37 -48c0 -31 -26 -56 -59 -56s-59 25 -59 56c0 14 1 21 19 55l54 114h57z" />
    <glyph glyph-name="quotedblright" unicode="&#x201d;" horiz-adv-x="376" 
d="M37 461l49 121c-25 9 -37 26 -37 48c0 32 26 57 59 57s59 -25 59 -57c0 -13 -1 -20 -19 -55l-54 -114h-57zM210 461l48 121c-24 9 -36 26 -36 48c0 32 26 57 58 57c33 0 59 -25 59 -57c0 -13 -1 -20 -19 -55l-54 -114h-56z" />
    <glyph glyph-name="quoteleft" unicode="&#x2018;" horiz-adv-x="197" 
d="M159 679l-48 -121c24 -9 36 -26 36 -48c0 -31 -26 -56 -58 -56c-33 0 -59 25 -59 56c0 14 1 21 19 55l54 114h56z" />
    <glyph glyph-name="quoteright" unicode="&#x2019;" horiz-adv-x="204" 
d="M37 461l49 121c-25 9 -37 26 -37 48c0 32 26 57 59 57s59 -25 59 -57c0 -13 -1 -20 -19 -55l-54 -114h-57z" />
    <glyph glyph-name="quotesinglbase" unicode="&#x201a;" horiz-adv-x="204" 
d="M37 -127l49 121c-25 9 -37 27 -37 49c0 31 26 56 58 56c33 0 59 -25 59 -56c0 -14 0 -21 -18 -56l-54 -114h-57z" />
    <glyph glyph-name="guillemotleft.case" horiz-adv-x="440" 
d="M230 486l-103 -150l103 -151h-90l-102 151l102 150h90zM402 486l-102 -150l102 -151h-90l-102 151l102 150h90z" />
    <glyph glyph-name="guillemotright.case" horiz-adv-x="440" 
d="M230 336l-103 -151h-89l102 151l-102 150h89zM402 336l-102 -151h-90l102 151l-102 150h90z" />
    <glyph glyph-name="guilsinglleft.case" horiz-adv-x="268" 
d="M230 486l-103 -150l103 -151h-90l-102 151l102 150h90z" />
    <glyph glyph-name="guilsinglright.case" horiz-adv-x="268" 
d="M230 336l-103 -151h-89l102 151l-102 150h89z" />
    <glyph glyph-name="space" unicode=" " horiz-adv-x="267" 
 />
    <glyph glyph-name="florin" unicode="&#x192;" horiz-adv-x="527" 
d="M412 600c-62 0 -95 -41 -103 -103l-17 -126h169v-78h-179l-26 -201c-15 -113 -75 -189 -182 -189c-29 0 -66 5 -102 15l14 80c24 -6 53 -10 72 -10c62 0 95 41 103 104l26 201h-130v78h140l17 126c16 112 75 188 182 188c29 0 66 -5 102 -15l-13 -79c-25 5 -54 9 -73 9z
" />
    <glyph glyph-name="florin.tf" horiz-adv-x="619" 
d="M483 600c-63 0 -95 -41 -104 -103l-17 -126h170v-78h-180l-26 -201c-15 -113 -74 -189 -181 -189c-30 0 -67 5 -103 15l14 80c24 -6 53 -10 72 -10c62 0 95 41 103 104l26 201h-129v78h139l18 126c15 112 74 188 181 188c29 0 67 -5 102 -15l-13 -79c-25 5 -54 9 -72 9z
" />
    <glyph glyph-name="cent" unicode="&#xa2;" horiz-adv-x="576" 
d="M298 72c67 0 117 37 130 93h95c-16 -92 -88 -159 -183 -174v-110h-83v110c-120 19 -205 118 -205 242c0 125 85 224 205 243v123h83v-123c95 -15 167 -82 183 -175h-95c-13 57 -63 94 -130 94c-93 0 -154 -72 -154 -162c0 -89 61 -161 154 -161z" />
    <glyph glyph-name="dollar" unicode="$" horiz-adv-x="664" 
d="M310 395l94 -19c125 -24 197 -78 197 -181c0 -114 -84 -193 -215 -207v-114h-83v114c-142 13 -235 97 -248 232h95c14 -93 84 -149 198 -149c95 0 155 44 155 112c0 47 -31 86 -114 101l-115 22c-129 24 -190 89 -190 186c0 113 87 192 219 202v116h83v-119
c108 -15 201 -76 216 -204h-94c-14 76 -66 126 -170 126c-93 0 -153 -44 -153 -114c0 -57 44 -89 125 -104z" />
    <glyph glyph-name="Euro" unicode="&#x20ac;" horiz-adv-x="874" 
d="M487 78c117 0 201 66 228 173h99c-32 -158 -159 -265 -327 -265c-155 0 -287 96 -335 236h-110v67h94c-2 17 -3 34 -3 51c0 11 0 21 1 32h-92v67h104c42 151 179 255 341 255c168 0 295 -107 327 -265h-99c-27 107 -111 173 -228 173c-112 0 -203 -65 -240 -163h306
l-18 -67h-303c-1 -10 -2 -21 -2 -32c0 -18 1 -35 4 -51h281l-16 -67h-244c41 -88 128 -144 232 -144z" />
    <glyph glyph-name="sterling" unicode="&#xa3;" horiz-adv-x="623" 
d="M200 80h376v-80h-537v80h69v200h-69v80h69v101c0 140 96 234 240 234c132 0 223 -79 237 -201h-93c-12 73 -66 119 -144 119c-89 0 -148 -60 -148 -152v-101h222v-80h-222v-200z" />
    <glyph glyph-name="yen" unicode="&#xa5;" horiz-adv-x="677" 
d="M412 277h156v-68h-181v-59h181v-69h-181v-81h-97v81h-181v69h181v59h-181v68h155l-251 403h106l219 -352l219 352h106z" />
    <glyph glyph-name="cent.tf" horiz-adv-x="619" 
d="M309 72c67 0 117 37 130 93h95c-16 -92 -88 -159 -183 -174v-110h-83v110c-120 19 -205 118 -205 242c0 125 85 224 205 243v123h83v-123c95 -15 167 -82 183 -175h-95c-13 57 -63 94 -130 94c-93 0 -154 -72 -154 -162c0 -89 61 -161 154 -161z" />
    <glyph glyph-name="dollar.tf" horiz-adv-x="619" 
d="M289 395l94 -19c125 -24 197 -78 197 -181c0 -114 -84 -193 -215 -207v-114h-83v114c-142 13 -235 97 -248 232h95c14 -93 84 -149 198 -149c95 0 155 44 155 112c0 47 -31 86 -114 101l-115 22c-129 24 -190 89 -190 186c0 113 87 192 219 202v116h83v-119
c108 -15 201 -76 216 -204h-94c-14 76 -66 126 -170 126c-93 0 -153 -44 -153 -114c0 -57 44 -89 125 -104z" />
    <glyph glyph-name="Euro.tf" horiz-adv-x="619" 
d="M356 71c55 0 98 20 122 54h113c-39 -86 -122 -140 -235 -140c-151 0 -251 94 -286 237h-58v67h47c-1 17 -2 34 -2 51c0 11 0 22 1 32h-46v67h54c30 154 133 256 290 256c120 0 208 -61 245 -159h-108c-24 46 -74 73 -137 73c-103 0 -167 -68 -191 -170h290l-18 -67h-282
c-1 -10 -1 -21 -1 -32c0 -18 1 -35 3 -51h260l-16 -67h-231c27 -91 90 -151 186 -151z" />
    <glyph glyph-name="sterling.tf" horiz-adv-x="619" 
d="M198 80h376v-80h-537v80h69v200h-69v80h69v101c0 140 96 234 240 234c132 0 223 -79 237 -201h-93c-12 73 -66 119 -144 119c-89 0 -148 -60 -148 -152v-101h222v-80h-222v-200z" />
    <glyph glyph-name="yen.tf" horiz-adv-x="619" 
d="M379 277h159v-68h-181v-59h181v-69h-181v-81h-97v81h-181v69h181v59h-181v68h159l-212 403h106l176 -342l176 342h106z" />
    <glyph glyph-name="asciitilde" unicode="~" horiz-adv-x="451" 
d="M333 400h81c0 -123 -107 -147 -170 -110l-60 39c-36 23 -66 2 -66 -34h-81c0 122 108 146 170 109l60 -39c37 -23 66 -2 66 35z" />
    <glyph glyph-name="divide" unicode="&#xf7;" horiz-adv-x="689" 
d="M345 460c-32 0 -57 24 -57 55c0 32 25 56 57 56c31 0 57 -24 57 -56c0 -31 -26 -55 -57 -55zM111 369h467v-85h-467v85zM345 85c-32 0 -57 24 -57 55c0 32 25 56 57 56c31 0 57 -24 57 -56c0 -31 -26 -55 -57 -55z" />
    <glyph glyph-name="equal" unicode="=" horiz-adv-x="703" 
d="M593 380h-482v86h482v-86zM593 184h-482v85h482v-85z" />
    <glyph glyph-name="greater" unicode="&#x3e;" horiz-adv-x="549" 
d="M496 257l-422 -197v92l320 151l-320 151v93l422 -197v-93z" />
    <glyph glyph-name="less" unicode="&#x3c;" horiz-adv-x="549" 
d="M476 547v-93l-321 -151l321 -151v-92l-422 197v93z" />
    <glyph glyph-name="minus" unicode="&#x2212;" horiz-adv-x="689" 
d="M111 369h467v-85h-467v85z" />
    <glyph glyph-name="multiply" unicode="&#xd7;" horiz-adv-x="670" 
d="M547 168l-60 -60l-152 152l-152 -152l-60 60l152 152l-152 152l60 60l152 -151l152 151l60 -60l-151 -152z" />
    <glyph glyph-name="percent" unicode="%" horiz-adv-x="1085" 
d="M279 695c108 0 191 -78 191 -191c0 -114 -83 -192 -191 -192c-109 0 -193 78 -193 192c0 113 84 191 193 191zM342 0h-67l457 680h67zM278 379c67 0 121 52 121 125c0 72 -54 124 -121 124s-122 -52 -122 -124c0 -73 55 -125 122 -125zM807 368c109 0 192 -78 192 -191
c0 -114 -83 -192 -192 -192c-108 0 -192 78 -192 192c0 113 84 191 192 191zM806 53c68 0 122 51 122 124s-54 124 -122 124c-66 0 -121 -51 -121 -124s55 -124 121 -124z" />
    <glyph glyph-name="perthousand" unicode="&#x2030;" horiz-adv-x="1538" 
d="M279 695c108 0 191 -78 191 -191c0 -114 -83 -192 -191 -192c-109 0 -193 78 -193 192c0 113 84 191 193 191zM342 0h-67l457 680h67zM278 379c67 0 121 52 121 125c0 72 -54 124 -121 124s-122 -52 -122 -124c0 -73 55 -125 122 -125zM807 368c109 0 192 -78 192 -191
c0 -114 -83 -192 -192 -192c-108 0 -192 78 -192 192c0 113 84 191 192 191zM1260 368c109 0 192 -78 192 -191c0 -114 -83 -192 -192 -192c-108 0 -192 78 -192 192c0 113 84 191 192 191zM806 53c68 0 122 51 122 124s-54 124 -122 124c-66 0 -121 -51 -121 -124
s55 -124 121 -124zM1259 53c68 0 122 51 122 124s-54 124 -122 124c-66 0 -121 -51 -121 -124s55 -124 121 -124z" />
    <glyph glyph-name="plus" unicode="+" horiz-adv-x="689" 
d="M389 284v-185h-88v185h-190v85h190v185h88v-185h190v-85h-190z" />
    <glyph glyph-name="plusminus" unicode="&#xb1;" horiz-adv-x="689" 
d="M578 323h-189v-148h-88v148h-190v85h190v149h88v-149h189v-85zM578 126v-86h-467v86h467z" />
    <glyph glyph-name="arrowdown" unicode="&#x2193;" horiz-adv-x="781" 
d="M435 680v-529l240 244l61 -62l-346 -345l-345 345l61 62l241 -245v530h88z" />
    <glyph glyph-name="arrowdownleft" unicode="&#x2199;" horiz-adv-x="795" 
d="M238 86l341 1v-87h-489v489h87l-1 -341l533 533l61 -61z" />
    <glyph glyph-name="arrowdownright" unicode="&#x2198;" horiz-adv-x="804" 
d="M96 681l532 -533v341h86v-489h-488l-1 87l342 -1l-533 534z" />
    <glyph glyph-name="arrowleft" unicode="&#x2190;" horiz-adv-x="766" 
d="M196 298l245 -241l-62 -61l-345 345l345 346l62 -61l-244 -241h529v-87h-530z" />
    <glyph glyph-name="arrowright" unicode="&#x2192;" horiz-adv-x="766" 
d="M40 385h529l-244 241l62 61l345 -346l-345 -345l-62 61l245 241h-530v87z" />
    <glyph glyph-name="arrowup" unicode="&#x2191;" horiz-adv-x="781" 
d="M347 530l-241 -245l-61 62l345 345l346 -345l-61 -62l-240 244v-529h-88v530z" />
    <glyph glyph-name="arrowupleft" unicode="&#x2196;" horiz-adv-x="804" 
d="M709 -1l-533 533l1 -341h-87v489h489v-87l-341 1l532 -533z" />
    <glyph glyph-name="arrowupright" unicode="&#x2197;" horiz-adv-x="819" 
d="M581 594l-341 -1v87h489v-489h-87v341l-532 -533l-62 62z" />
    <glyph glyph-name="arrowdown.ss05" horiz-adv-x="693" 
d="M600 403l-253 -253l-56 56l-197 198l56 57l197 -199l196 198z" />
    <glyph glyph-name="arrowleft.ss05" horiz-adv-x="693" 
d="M543 153l-196 198l-197 -199l-56 57l197 198l56 56l253 -253z" />
    <glyph glyph-name="arrowright.ss05" horiz-adv-x="570" 
d="M228 340l196 -196l-56 -57l-254 253l57 57l198 196l57 -56z" />
    <glyph glyph-name="arrowup.ss05" horiz-adv-x="563" 
d="M449 340l-253 -253l-57 57l196 196l-197 197l56 56l198 -196z" />
    <glyph glyph-name="ampersand" unicode="&#x26;" horiz-adv-x="726" 
d="M580 0l-79 72c-58 -56 -128 -86 -212 -86c-147 0 -245 84 -245 205c0 86 53 152 131 186c-39 46 -57 86 -57 134c0 108 87 184 203 184c113 0 189 -72 202 -188h-92c-9 69 -52 106 -111 106c-62 0 -107 -42 -107 -104c0 -66 55 -113 161 -208l120 -110l100 148h96
l-129 -195l-6 -9l147 -135h-122zM290 68c55 0 107 21 150 59l-146 133c-23 21 -44 40 -62 58c-59 -25 -98 -69 -98 -126c0 -69 65 -124 156 -124z" />
    <glyph glyph-name="asciicircum" unicode="^" horiz-adv-x="403" 
d="M376 444h-85l-89 167l-90 -167h-85l133 236h83z" />
    <glyph glyph-name="at" unicode="@" horiz-adv-x="994" 
d="M690 424v-222c0 -66 22 -100 69 -100c64 0 96 57 96 143c0 195 -156 343 -354 343s-360 -153 -360 -349c0 -199 163 -349 356 -349c83 0 163 28 227 78l38 -57c-74 -57 -167 -87 -264 -87c-234 0 -427 176 -427 415c0 237 192 415 430 415c239 0 422 -173 422 -407
c0 -120 -48 -214 -164 -214c-71 0 -109 27 -130 67c-35 -43 -88 -69 -150 -69c-112 0 -199 87 -199 202c0 117 87 203 199 203c51 0 96 -18 129 -47v35h82zM492 105c41 0 88 19 118 68c-1 15 -2 31 -2 47v78c-29 44 -73 65 -116 65c-66 0 -128 -49 -128 -129
s61 -129 128 -129z" />
    <glyph glyph-name="bar" unicode="|" horiz-adv-x="315" 
d="M201 730v-890h-87v890h87z" />
    <glyph glyph-name="brokenbar" unicode="&#xa6;" horiz-adv-x="315" 
d="M201 336h-87v394h87v-394zM201 -160h-87v394h87v-394z" />
    <glyph glyph-name="copyright" unicode="&#xa9;" horiz-adv-x="850" 
d="M425 695c198 0 364 -152 364 -355s-166 -355 -364 -355s-364 152 -364 355s166 355 364 355zM424 47c160 0 299 127 299 293s-139 293 -299 293s-298 -127 -298 -293s138 -293 298 -293zM425 450c-61 0 -109 -50 -109 -111c0 -62 48 -112 109 -112c47 0 86 27 98 67h73
c-16 -79 -85 -132 -170 -132c-101 0 -180 76 -180 177c0 100 79 177 180 177c85 0 154 -53 170 -132h-73c-12 39 -51 66 -98 66z" />
    <glyph glyph-name="dagger" unicode="&#x2020;" horiz-adv-x="407" 
d="M235 538v-218h-63v218h-122v63h122v121h63v-121h121v-63h-121z" />
    <glyph glyph-name="daggerdbl" unicode="&#x2021;" horiz-adv-x="407" 
d="M235 489h121v-62h-121v-107h-63v107h-122v62h122v70h-122v63h122v100h63v-100h121v-63h-121v-70z" />
    <glyph glyph-name="degree" unicode="&#xb0;" horiz-adv-x="479" 
d="M239 695c98 0 170 -71 170 -166s-72 -166 -170 -166c-97 0 -170 71 -170 166s73 166 170 166zM239 433c54 0 98 43 98 96c0 54 -44 97 -98 97c-53 0 -97 -43 -97 -97c0 -53 44 -96 97 -96z" />
    <glyph glyph-name="uni2116" unicode="&#x2116;" horiz-adv-x="1389" 
d="M579 680h95v-680h-76l-417 504v-504h-95v680h75l418 -512v512zM1055 162c-141 0 -249 107 -249 248c0 140 108 245 249 245c140 0 248 -105 248 -245c0 -141 -108 -248 -248 -248zM1055 572c-91 0 -157 -72 -157 -162c0 -91 66 -165 157 -165s156 74 156 165
c0 90 -65 162 -156 162zM818 82h472v-82h-472v82z" />
    <glyph glyph-name="paragraph" unicode="&#xb6;" horiz-adv-x="752" 
d="M676 680v-840h-95v758h-118v-758h-95v382h-88c-140 0 -249 93 -249 233c0 135 109 225 249 225h396zM368 598h-88c-90 0 -156 -58 -156 -143c0 -88 66 -147 156 -147h88v290z" />
    <glyph glyph-name="uni2117" unicode="&#x2117;" horiz-adv-x="850" 
d="M425 695c198 0 364 -152 364 -355s-166 -355 -364 -355s-364 152 -364 355s166 355 364 355zM424 633c-160 0 -298 -127 -298 -293s138 -293 298 -293s299 127 299 293s-139 293 -299 293zM312 518h134c82 0 137 -46 137 -116c0 -71 -55 -114 -138 -114h-76v-112h-57v342
zM369 464v-125h77c48 0 78 25 78 63c0 37 -30 62 -78 62h-77z" />
    <glyph glyph-name="registered" unicode="&#xae;" horiz-adv-x="560" 
d="M280 693c132 0 243 -102 243 -237s-111 -236 -243 -236s-243 101 -243 236s111 237 243 237zM279 269c102 0 190 82 190 187c0 106 -88 189 -190 189c-101 0 -189 -83 -189 -189c0 -105 88 -187 189 -187zM376 496c0 -34 -21 -58 -52 -68l59 -76h-50l-55 71h-39v-71h-39
v219h92c48 0 84 -30 84 -75zM239 459h52c26 0 44 15 44 38c0 22 -18 37 -44 37h-52v-75z" />
    <glyph glyph-name="section" unicode="&#xa7;" horiz-adv-x="543" 
d="M506 226c0 -63 -36 -103 -83 -124c25 -28 38 -61 38 -102c0 -101 -82 -159 -190 -159c-119 0 -197 69 -211 176h100c7 -56 44 -93 110 -93c55 0 96 28 96 79c0 41 -24 65 -82 91l-109 51c-102 47 -138 95 -138 160c0 64 36 103 84 125c-26 28 -39 61 -39 101
c0 101 82 159 190 159c118 0 197 -70 211 -176h-100c-7 55 -44 94 -110 94c-55 0 -96 -30 -96 -80c0 -40 24 -64 82 -91l109 -51c101 -48 138 -94 138 -160zM330 165l19 -10c37 7 64 33 64 70c0 35 -26 60 -86 88l-114 53l-19 10c-36 -6 -64 -32 -64 -70
c0 -35 26 -60 86 -88z" />
    <glyph glyph-name="trademark" unicode="&#x2122;" horiz-adv-x="688" 
d="M286 679v-51h-103v-241h-53v241h-104v51h260zM640 679v-292h-54v181l-90 -144h-29l-92 146l1 -183h-53v292h41l117 -183l117 183h42z" />
    <glyph glyph-name="at.case" horiz-adv-x="994" 
d="M690 494v-222c0 -66 22 -100 69 -100c64 0 96 57 96 143c0 195 -156 343 -354 343s-360 -153 -360 -349c0 -199 163 -349 356 -349c83 0 163 28 227 78l38 -57c-74 -57 -167 -87 -264 -87c-234 0 -427 176 -427 415c0 237 192 415 430 415c239 0 422 -173 422 -407
c0 -120 -48 -214 -164 -214c-71 0 -109 27 -130 67c-35 -43 -88 -69 -150 -69c-112 0 -199 87 -199 202c0 117 87 203 199 203c51 0 96 -18 129 -47v35h82zM492 175c41 0 88 19 118 68c-1 15 -2 31 -2 47v78c-29 44 -73 65 -116 65c-66 0 -128 -49 -128 -129
s61 -129 128 -129z" />
    <glyph glyph-name="bar.case" horiz-adv-x="315" 
d="M201 730v-777h-87v777h87z" />
    <glyph glyph-name="brokenbar.case" horiz-adv-x="315" 
d="M201 392h-87v338h87v-338zM201 -47h-87v337h87v-337z" />
    <glyph glyph-name="registered.ss07" horiz-adv-x="850" 
d="M425 695c198 0 364 -152 364 -355s-166 -355 -364 -355s-364 152 -364 355s166 355 364 355zM424 47c160 0 299 127 299 293s-139 293 -299 293s-298 -127 -298 -293s138 -293 298 -293zM574 402c0 -54 -31 -91 -83 -107l94 -119h-72l-86 112h-67v-112h-57v342h134
c82 0 137 -46 137 -116zM360 339h77c48 0 78 25 78 63c0 37 -30 62 -78 62h-77v-125z" />
    <glyph glyph-name="acute" unicode="&#xb4;" 
d="M426 706l-96 -146h-84l78 146h102z" />
    <glyph glyph-name="breve" unicode="&#x2d8;" 
d="M380 691h69c0 -97 -67 -147 -149 -147s-149 50 -149 147h69c0 -61 39 -84 80 -84c40 0 80 23 80 84z" />
    <glyph glyph-name="caron" unicode="&#x2c7;" 
d="M466 704l-121 -149h-90l-121 149h88l79 -90l78 90h87z" />
    <glyph glyph-name="cedilla" unicode="&#xb8;" 
d="M298 -213h-80l45 150h91z" />
    <glyph glyph-name="circumflex" unicode="&#x2c6;" 
d="M301 645l-79 -90h-88l121 149h90l121 -149h-87z" />
    <glyph glyph-name="dieresis" unicode="&#xa8;" 
d="M202 676c34 0 61 -26 61 -59s-27 -59 -61 -59s-61 26 -61 59s27 59 61 59zM399 676c34 0 61 -26 61 -59s-27 -59 -61 -59s-61 26 -61 59s27 59 61 59z" />
    <glyph glyph-name="dotaccent" unicode="&#x2d9;" 
d="M300 558c-34 0 -61 26 -61 59s27 59 61 59s61 -26 61 -59s-27 -59 -61 -59z" />
    <glyph glyph-name="grave" unicode="`" 
d="M379 560h-84l-96 146h102z" />
    <glyph glyph-name="hungarumlaut" unicode="&#x2dd;" 
d="M347 706l-83 -146h-78l65 146h96zM487 706l-82 -146h-78l65 146h95z" />
    <glyph glyph-name="macron" unicode="&#xaf;" 
d="M439 655v-75h-279v75h279z" />
    <glyph glyph-name="ogonek" unicode="&#x2db;" 
d="M356 45l11 -44c-48 -12 -77 -31 -77 -64c0 -29 24 -45 70 -45c13 0 23 1 37 4l9 -69c-11 -5 -36 -9 -58 -9c-81 0 -136 43 -136 109c0 61 62 105 144 118z" />
    <glyph glyph-name="ring" unicode="&#x2da;" 
d="M298 751c63 0 106 -41 106 -100s-43 -101 -106 -101c-62 0 -106 42 -106 101s44 100 106 100zM298 599c30 0 52 22 52 52c0 29 -22 51 -52 51s-52 -22 -52 -51c0 -30 22 -52 52 -52z" />
    <glyph glyph-name="tilde" unicode="&#x2dc;" 
d="M391 686h74c0 -109 -94 -134 -155 -96l-45 28c-35 23 -60 4 -60 -28h-75c0 109 97 132 156 96l44 -28c38 -25 61 -3 61 28z" />
    <glyph glyph-name="caron.alt" 
d="M349 680l-31 -192h-71l8 192h94z" />
    <glyph glyph-name="acute.case" 
d="M426 877l-96 -146h-84l78 146h102z" />
    <glyph glyph-name="breve.case" 
d="M380 882h69c0 -98 -67 -147 -149 -147s-149 49 -149 147h69c0 -61 39 -84 80 -84c40 0 80 23 80 84z" />
    <glyph glyph-name="caron.case" 
d="M466 874l-121 -148h-90l-121 148h88l79 -90l78 90h87z" />
    <glyph glyph-name="circumflex.case" 
d="M301 816l-79 -90h-88l121 148h90l121 -148h-87z" />
    <glyph glyph-name="dieresis.case" 
d="M202 867c34 0 61 -26 61 -59c0 -34 -27 -59 -61 -59s-61 25 -61 59c0 33 27 59 61 59zM399 867c34 0 61 -26 61 -59c0 -34 -27 -59 -61 -59s-61 25 -61 59c0 33 27 59 61 59z" />
    <glyph glyph-name="dotaccent.case" 
d="M300 749c-34 0 -61 25 -61 59c0 33 27 59 61 59s61 -26 61 -59c0 -34 -27 -59 -61 -59z" />
    <glyph glyph-name="grave.case" 
d="M379 731h-84l-96 146h102z" />
    <glyph glyph-name="hungarumlaut.case" 
d="M347 877l-83 -146h-78l65 146h96zM487 877l-82 -146h-78l65 146h95z" />
    <glyph glyph-name="macron.case" 
d="M439 826v-76h-279v76h279z" />
    <glyph glyph-name="ring.case" 
d="M298 942c63 0 106 -41 106 -100s-43 -101 -106 -101c-62 0 -106 42 -106 101s44 100 106 100zM298 790c30 0 52 22 52 52c0 29 -22 51 -52 51s-52 -22 -52 -51c0 -30 22 -52 52 -52z" />
    <glyph glyph-name="tilde.case" 
d="M391 857h74c0 -110 -94 -134 -155 -97l-45 29c-35 23 -60 3 -60 -28h-75c0 109 97 131 156 96l44 -28c38 -25 61 -4 61 28z" />
    <glyph glyph-name="uni0326" unicode="&#x326;" horiz-adv-x="0" 
d="M237 -242l37 83c-26 8 -38 26 -38 48c0 29 26 53 57 53c30 0 56 -22 56 -54c0 -23 -5 -30 -60 -130h-52z" />
    </font>
</defs>
</svg>
